<?xml version="1.0" encoding="utf-8"?>
<!-- Generator: Adobe Illustrator 12.0.0, SVG Export Plug-In  -->
<!DOCTYPE svg PUBLIC "-//W3C//DTD SVG 1.1//EN" "http://www.w3.org/Graphics/SVG/1.1/DTD/svg11.dtd" [
	<!ENTITY ns_flows "http://ns.adobe.com/Flows/1.0/">
	<!ENTITY ns_svg "http://www.w3.org/2000/svg">
	<!ENTITY ns_xlink "http://www.w3.org/1999/xlink">
]>
<svg  version="1.1" xmlns="&ns_svg;" xmlns:xlink="&ns_xlink;" xmlns:a="http://ns.adobe.com/AdobeSVGViewerExtensions/3.0/"
	 width="438" height="607" viewBox="-0.198 -0.785 438 607" enable-background="new -0.198 -0.785 438 607" xml:space="preserve">
<defs>
</defs>
<g>
	<defs>
		<rect id="XMLID_228_" x="238.793" y="0.5" width="198.425" height="282.075"/>
	</defs>
	<clipPath id="XMLID_253_">
		<use xlink:href="#XMLID_228_" />
	</clipPath>
	
		<line clip-path="url(#XMLID_253_)" fill="none" stroke="#000000" stroke-width="0.25" stroke-miterlimit="10" x1="252.411" y1="17.035" x2="252.411" y2="7.309"/>
	
		<line clip-path="url(#XMLID_253_)" fill="none" stroke="#000000" stroke-width="0.25" stroke-miterlimit="10" x1="423.602" y1="17.035" x2="423.602" y2="7.309"/>
	
		<line clip-path="url(#XMLID_253_)" fill="none" stroke="#000000" stroke-width="0.25" stroke-miterlimit="10" x1="426.52" y1="19.954" x2="436.247" y2="19.954"/>
	
		<line clip-path="url(#XMLID_253_)" fill="none" stroke="#000000" stroke-width="0.25" stroke-miterlimit="10" x1="426.52" y1="263.122" x2="436.247" y2="263.122"/>
	
		<line clip-path="url(#XMLID_253_)" fill="none" stroke="#000000" stroke-width="0.25" stroke-miterlimit="10" x1="423.602" y1="266.04" x2="423.602" y2="275.767"/>
	
		<line clip-path="url(#XMLID_253_)" fill="none" stroke="#000000" stroke-width="0.25" stroke-miterlimit="10" x1="252.411" y1="266.04" x2="252.411" y2="275.767"/>
	
		<line clip-path="url(#XMLID_253_)" fill="none" stroke="#000000" stroke-width="0.25" stroke-miterlimit="10" x1="249.493" y1="263.122" x2="239.767" y2="263.122"/>
	
		<line clip-path="url(#XMLID_253_)" fill="none" stroke="#000000" stroke-width="0.25" stroke-miterlimit="10" x1="249.493" y1="19.954" x2="239.767" y2="19.954"/>
	
		<line clip-path="url(#XMLID_253_)" fill="none" stroke="#000000" stroke-width="0.25" stroke-miterlimit="10" x1="338.006" y1="17.035" x2="338.006" y2="7.309"/>
	
		<line clip-path="url(#XMLID_253_)" fill="none" stroke="#000000" stroke-width="0.25" stroke-miterlimit="10" x1="328.278" y1="17.035" x2="347.732" y2="17.035"/>
	
		<line clip-path="url(#XMLID_253_)" fill="none" stroke="#000000" stroke-width="0.25" stroke-miterlimit="10" x1="338.006" y1="266.04" x2="338.006" y2="275.767"/>
	
		<line clip-path="url(#XMLID_253_)" fill="none" stroke="#000000" stroke-width="0.25" stroke-miterlimit="10" x1="347.732" y1="266.04" x2="328.278" y2="266.04"/>
	
		<line clip-path="url(#XMLID_253_)" fill="none" stroke="#000000" stroke-width="0.25" stroke-miterlimit="10" x1="426.52" y1="141.538" x2="436.247" y2="141.538"/>
	
		<line clip-path="url(#XMLID_253_)" fill="none" stroke="#000000" stroke-width="0.25" stroke-miterlimit="10" x1="426.52" y1="131.811" x2="426.52" y2="151.264"/>
	
		<line clip-path="url(#XMLID_253_)" fill="none" stroke="#000000" stroke-width="0.25" stroke-miterlimit="10" x1="249.493" y1="141.538" x2="239.767" y2="141.538"/>
	
		<line clip-path="url(#XMLID_253_)" fill="none" stroke="#000000" stroke-width="0.25" stroke-miterlimit="10" x1="249.493" y1="151.264" x2="249.493" y2="131.811"/>
	<g clip-path="url(#XMLID_253_)">
		<defs>
			<rect id="XMLID_227_" x="252.411" y="19.954" width="171.191" height="243.168"/>
		</defs>
		<clipPath id="XMLID_254_">
			<use xlink:href="#XMLID_227_" />
		</clipPath>
		<g clip-path="url(#XMLID_254_)">
			<path fill="#010101" d="M262.533,33.567h1.208l0.121,0.681h0.043c0.103-0.227,0.244-0.419,0.423-0.576
				c0.179-0.157,0.426-0.236,0.741-0.236c0.242,0,0.445,0.075,0.61,0.225c0.165,0.149,0.28,0.371,0.346,0.664
				c0.102-0.249,0.25-0.459,0.444-0.631c0.194-0.172,0.445-0.258,0.752-0.258c0.38,0,0.677,0.155,0.889,0.466
				c0.212,0.311,0.319,0.741,0.319,1.291v3.821h-1.516v-3.701c0-0.336-0.103-0.504-0.308-0.504c-0.198,0-0.366,0.175-0.505,0.526
				v3.679h-1.241v-3.701c0-0.336-0.106-0.504-0.318-0.504c-0.103,0-0.19,0.044-0.264,0.131c-0.073,0.088-0.15,0.22-0.23,0.395v3.679
				h-1.516V33.567z"/>
			<path fill="#010101" d="M269.396,37.499c0-0.308,0.065-0.576,0.198-0.807c0.132-0.23,0.342-0.426,0.631-0.587
				c0.289-0.161,0.661-0.291,1.114-0.39c0.454-0.099,1.003-0.167,1.647-0.203c-0.029-0.249-0.137-0.443-0.324-0.582
				c-0.187-0.139-0.467-0.208-0.84-0.208c-0.264,0-0.529,0.045-0.796,0.137s-0.554,0.214-0.862,0.368l-0.571-1.054
				c0.373-0.212,0.774-0.388,1.202-0.527c0.428-0.14,0.876-0.208,1.345-0.208c0.762,0,1.362,0.201,1.801,0.604
				c0.439,0.403,0.659,1.021,0.659,1.856v3.119h-1.318l-0.12-0.615h-0.044c-0.278,0.212-0.582,0.39-0.912,0.533
				c-0.33,0.142-0.67,0.214-1.021,0.214c-0.278,0-0.527-0.042-0.747-0.126c-0.219-0.084-0.406-0.201-0.56-0.351
				s-0.273-0.324-0.357-0.522C269.438,37.949,269.396,37.733,269.396,37.499z M270.945,37.377c0,0.177,0.068,0.307,0.203,0.391
				s0.32,0.126,0.554,0.126c0.242,0,0.469-0.05,0.681-0.148c0.212-0.099,0.414-0.222,0.604-0.369v-0.9
				c-0.402,0.021-0.736,0.059-1,0.11s-0.472,0.115-0.626,0.192c-0.154,0.078-0.262,0.167-0.324,0.27
				C270.976,37.151,270.945,37.261,270.945,37.377z"/>
			<path fill="#010101" d="M276.588,33.567h1.318l0.132,1.186h0.033c0.271-0.446,0.597-0.778,0.978-0.994
				c0.38-0.215,0.79-0.323,1.229-0.323c0.241,0,0.438,0.018,0.587,0.055c0.15,0.036,0.306,0.092,0.467,0.165l-0.33,1.351
				c-0.168-0.051-0.32-0.09-0.456-0.116c-0.135-0.026-0.305-0.038-0.51-0.038c-0.336,0-0.668,0.098-0.994,0.296
				c-0.326,0.198-0.606,0.542-0.84,1.032v2.833h-1.615V33.567z"/>
			<path fill="#010101" d="M282.737,31.316h1.614v4.415l0.033-0.011l2.01-2.152h1.768l-2.064,2.24l2.23,3.207h-1.747l-1.417-2.141
				l-0.813,0.791v1.351h-1.614V31.316z"/>
			<path fill="#010101" d="M289.798,37.301c0.314,0.197,0.631,0.355,0.949,0.472c0.319,0.117,0.661,0.176,1.027,0.176
				c0.373,0,0.641-0.041,0.802-0.121c0.161-0.081,0.241-0.194,0.241-0.34c0-0.168-0.133-0.306-0.4-0.412s-0.621-0.222-1.06-0.346
				c-0.242-0.066-0.478-0.145-0.709-0.237c-0.23-0.091-0.437-0.201-0.62-0.33c-0.183-0.127-0.332-0.276-0.445-0.444
				c-0.113-0.168-0.17-0.362-0.17-0.582c0-0.249,0.059-0.479,0.176-0.692c0.118-0.212,0.284-0.392,0.5-0.538
				c0.216-0.146,0.479-0.261,0.791-0.346s0.661-0.126,1.049-0.126c0.483,0,0.924,0.079,1.323,0.236s0.741,0.328,1.027,0.511
				l-0.725,0.966c-0.25-0.147-0.506-0.269-0.769-0.368c-0.263-0.099-0.538-0.148-0.824-0.148c-0.344,0-0.587,0.037-0.73,0.11
				c-0.143,0.073-0.214,0.18-0.214,0.319c0,0.081,0.036,0.154,0.109,0.219c0.073,0.066,0.172,0.125,0.296,0.176
				c0.125,0.051,0.273,0.101,0.445,0.148c0.171,0.048,0.353,0.097,0.543,0.148c0.271,0.073,0.527,0.156,0.768,0.247
				c0.242,0.092,0.454,0.2,0.637,0.324c0.183,0.124,0.33,0.274,0.439,0.45c0.109,0.176,0.164,0.381,0.164,0.615
				c0,0.25-0.058,0.48-0.175,0.692c-0.118,0.212-0.288,0.397-0.511,0.554c-0.223,0.157-0.501,0.282-0.834,0.374
				c-0.333,0.091-0.719,0.137-1.159,0.137c-0.491,0-0.97-0.081-1.439-0.242c-0.468-0.161-0.878-0.358-1.23-0.593L289.798,37.301z"/>
			<path fill="#010101" d="M297.1,34.312c0-0.182,0.031-0.353,0.093-0.51c0.062-0.157,0.148-0.295,0.258-0.412
				c0.109-0.117,0.243-0.208,0.4-0.275c0.157-0.065,0.332-0.099,0.522-0.099s0.364,0.033,0.521,0.099
				c0.157,0.066,0.291,0.158,0.4,0.275c0.11,0.117,0.196,0.254,0.258,0.412c0.063,0.157,0.094,0.328,0.094,0.51
				c0,0.367-0.118,0.672-0.352,0.917c-0.234,0.245-0.542,0.368-0.922,0.368c-0.381,0-0.688-0.123-0.922-0.368
				C297.217,34.984,297.1,34.678,297.1,34.312z M297.1,37.861c0-0.183,0.031-0.354,0.093-0.511c0.062-0.157,0.148-0.294,0.258-0.411
				c0.109-0.117,0.243-0.208,0.4-0.275c0.157-0.066,0.332-0.099,0.522-0.099s0.364,0.033,0.521,0.099
				c0.157,0.066,0.291,0.158,0.4,0.275c0.11,0.117,0.196,0.254,0.258,0.411c0.063,0.157,0.094,0.328,0.094,0.511
				c0,0.367-0.118,0.672-0.352,0.917c-0.234,0.245-0.542,0.368-0.922,0.368c-0.381,0-0.688-0.123-0.922-0.368
				C297.217,38.533,297.1,38.228,297.1,37.861z"/>
		</g>
		<g clip-path="url(#XMLID_254_)">
			<path fill="#010101" d="M276.05,49.467c0-0.454,0.086-0.858,0.258-1.213c0.172-0.354,0.403-0.653,0.692-0.895
				s0.624-0.427,1.005-0.555c0.381-0.128,0.779-0.192,1.197-0.192c0.431,0,0.821,0.069,1.169,0.209
				c0.348,0.139,0.639,0.314,0.874,0.527l-0.747,1c-0.403-0.286-0.806-0.429-1.208-0.429c-0.468,0-0.849,0.14-1.142,0.418
				c-0.293,0.278-0.439,0.655-0.439,1.13c0,0.476,0.141,0.854,0.422,1.131c0.282,0.278,0.65,0.417,1.104,0.417
				c0.286,0,0.549-0.051,0.79-0.154c0.242-0.103,0.458-0.223,0.648-0.362l0.659,1.021c-0.33,0.278-0.694,0.481-1.092,0.61
				c-0.399,0.128-0.786,0.192-1.159,0.192c-0.432,0-0.832-0.064-1.197-0.192c-0.366-0.128-0.686-0.313-0.961-0.555
				c-0.274-0.241-0.488-0.54-0.642-0.895C276.127,50.326,276.05,49.921,276.05,49.467z"/>
			<path fill="#010101" d="M283.176,46.744h1.318l0.132,1.186h0.033c0.271-0.446,0.597-0.778,0.978-0.994
				c0.381-0.216,0.791-0.324,1.23-0.324c0.241,0,0.438,0.018,0.587,0.055c0.15,0.036,0.305,0.092,0.467,0.165l-0.33,1.351
				c-0.168-0.051-0.321-0.09-0.456-0.116s-0.306-0.038-0.51-0.038c-0.337,0-0.668,0.098-0.994,0.296
				c-0.326,0.198-0.605,0.542-0.84,1.032v2.833h-1.615V46.744z"/>
			<path fill="#010101" d="M289.007,49.467c0-0.454,0.077-0.858,0.23-1.213c0.154-0.354,0.361-0.653,0.621-0.895
				s0.556-0.427,0.889-0.555c0.333-0.128,0.679-0.192,1.038-0.192s0.705,0.064,1.038,0.192c0.333,0.128,0.629,0.313,0.889,0.555
				c0.26,0.241,0.467,0.54,0.621,0.895c0.154,0.355,0.23,0.76,0.23,1.213c0,0.454-0.077,0.859-0.23,1.213
				c-0.154,0.355-0.36,0.654-0.621,0.895c-0.26,0.242-0.557,0.427-0.889,0.555c-0.333,0.128-0.679,0.192-1.038,0.192
				s-0.705-0.064-1.038-0.192c-0.333-0.128-0.629-0.313-0.889-0.555c-0.26-0.241-0.467-0.54-0.621-0.895
				C289.083,50.326,289.007,49.921,289.007,49.467z M290.665,49.467c0,0.476,0.093,0.854,0.28,1.131
				c0.187,0.278,0.467,0.417,0.84,0.417c0.374,0,0.654-0.139,0.84-0.417c0.187-0.278,0.28-0.655,0.28-1.131
				c0-0.476-0.094-0.852-0.28-1.13s-0.467-0.418-0.84-0.418c-0.373,0-0.653,0.14-0.84,0.418S290.665,48.991,290.665,49.467z"/>
			<path fill="#010101" d="M297.484,52.619v1.592h-1.614v-7.467h1.317l0.121,0.549h0.033c0.219-0.198,0.472-0.36,0.758-0.488
				c0.285-0.128,0.574-0.192,0.868-0.192c0.336,0,0.641,0.066,0.911,0.198c0.271,0.131,0.502,0.318,0.692,0.56
				s0.335,0.533,0.433,0.873c0.099,0.34,0.148,0.719,0.148,1.137c0,0.468-0.065,0.884-0.197,1.246
				c-0.131,0.362-0.308,0.67-0.527,0.922c-0.219,0.253-0.47,0.445-0.752,0.577c-0.282,0.131-0.577,0.197-0.884,0.197
				c-0.499,0-0.952-0.197-1.362-0.593L297.484,52.619z M297.484,50.642c0.154,0.132,0.313,0.225,0.478,0.28
				c0.165,0.055,0.316,0.082,0.456,0.082c0.307,0,0.563-0.126,0.768-0.379c0.205-0.253,0.308-0.661,0.308-1.224
				c0-0.981-0.333-1.472-1-1.472c-0.344,0-0.681,0.168-1.01,0.505V50.642z"/>
			<path fill="#010101" d="M308.99,49.467c0-0.454,0.086-0.858,0.258-1.213c0.172-0.354,0.403-0.653,0.692-0.895
				s0.624-0.427,1.005-0.555c0.38-0.128,0.779-0.192,1.197-0.192c0.432,0,0.822,0.069,1.169,0.209
				c0.348,0.139,0.639,0.314,0.873,0.527l-0.747,1c-0.402-0.286-0.805-0.429-1.208-0.429c-0.468,0-0.849,0.14-1.143,0.418
				c-0.292,0.278-0.439,0.655-0.439,1.13c0,0.476,0.141,0.854,0.423,1.131c0.282,0.278,0.65,0.417,1.104,0.417
				c0.285,0,0.549-0.051,0.791-0.154s0.458-0.223,0.647-0.362l0.659,1.021c-0.33,0.278-0.694,0.481-1.092,0.61
				c-0.399,0.128-0.786,0.192-1.159,0.192c-0.432,0-0.832-0.064-1.197-0.192c-0.366-0.128-0.686-0.313-0.961-0.555
				c-0.274-0.241-0.489-0.54-0.642-0.895C309.067,50.326,308.99,49.921,308.99,49.467z"/>
			<path fill="#010101" d="M316.117,46.744h1.318l0.132,1.186h0.033c0.271-0.446,0.597-0.778,0.978-0.994
				c0.38-0.216,0.79-0.324,1.229-0.324c0.241,0,0.438,0.018,0.587,0.055c0.15,0.036,0.306,0.092,0.467,0.165l-0.33,1.351
				c-0.168-0.051-0.32-0.09-0.456-0.116c-0.135-0.025-0.305-0.038-0.51-0.038c-0.337,0-0.668,0.098-0.994,0.296
				c-0.326,0.198-0.605,0.542-0.84,1.032v2.833h-1.615V46.744z"/>
			<path fill="#010101" d="M321.948,49.467c0-0.454,0.077-0.858,0.23-1.213c0.154-0.354,0.361-0.653,0.621-0.895
				s0.557-0.427,0.889-0.555c0.333-0.128,0.679-0.192,1.038-0.192s0.705,0.064,1.038,0.192c0.333,0.128,0.629,0.313,0.889,0.555
				c0.261,0.241,0.467,0.54,0.621,0.895c0.154,0.355,0.23,0.76,0.23,1.213c0,0.454-0.077,0.859-0.23,1.213
				c-0.154,0.355-0.36,0.654-0.621,0.895c-0.26,0.242-0.556,0.427-0.889,0.555c-0.333,0.128-0.679,0.192-1.038,0.192
				s-0.705-0.064-1.038-0.192c-0.333-0.128-0.629-0.313-0.889-0.555c-0.26-0.241-0.467-0.54-0.621-0.895
				C322.024,50.326,321.948,49.921,321.948,49.467z M323.606,49.467c0,0.476,0.093,0.854,0.28,1.131
				c0.187,0.278,0.467,0.417,0.84,0.417c0.373,0,0.653-0.139,0.84-0.417c0.187-0.278,0.28-0.655,0.28-1.131
				c0-0.476-0.094-0.852-0.28-1.13s-0.467-0.418-0.84-0.418c-0.374,0-0.654,0.14-0.84,0.418S323.606,48.991,323.606,49.467z"/>
			<path fill="#010101" d="M329.327,50.478c0.314,0.197,0.631,0.354,0.949,0.472c0.319,0.117,0.661,0.176,1.027,0.176
				c0.373,0,0.641-0.041,0.802-0.121c0.161-0.081,0.241-0.194,0.241-0.34c0-0.168-0.133-0.306-0.4-0.412
				c-0.267-0.106-0.621-0.222-1.06-0.346c-0.242-0.066-0.478-0.145-0.708-0.237c-0.231-0.091-0.438-0.201-0.621-0.33
				c-0.183-0.127-0.332-0.276-0.445-0.444c-0.113-0.168-0.17-0.362-0.17-0.582c0-0.249,0.059-0.479,0.176-0.692
				c0.118-0.212,0.284-0.391,0.5-0.538c0.216-0.146,0.479-0.262,0.791-0.346c0.311-0.084,0.661-0.126,1.049-0.126
				c0.483,0,0.924,0.079,1.323,0.236s0.741,0.328,1.027,0.511l-0.725,0.966c-0.249-0.146-0.504-0.269-0.769-0.368
				c-0.264-0.099-0.538-0.148-0.824-0.148c-0.344,0-0.587,0.037-0.73,0.109c-0.143,0.073-0.214,0.179-0.214,0.319
				c0,0.081,0.036,0.154,0.109,0.219c0.073,0.066,0.172,0.125,0.296,0.176c0.125,0.051,0.273,0.101,0.445,0.148
				c0.171,0.048,0.353,0.097,0.543,0.148c0.271,0.073,0.527,0.156,0.768,0.247c0.242,0.091,0.454,0.199,0.637,0.324
				c0.183,0.124,0.33,0.274,0.439,0.45c0.11,0.176,0.166,0.381,0.166,0.615c0,0.249-0.059,0.479-0.176,0.692
				c-0.117,0.212-0.287,0.396-0.51,0.554c-0.224,0.157-0.501,0.282-0.834,0.374c-0.333,0.091-0.72,0.137-1.159,0.137
				c-0.491,0-0.97-0.081-1.438-0.242c-0.469-0.161-0.879-0.358-1.23-0.593L329.327,50.478z"/>
			<path fill="#010101" d="M335.914,50.478c0.314,0.197,0.631,0.354,0.95,0.472c0.318,0.117,0.661,0.176,1.027,0.176
				c0.373,0,0.641-0.041,0.802-0.121c0.161-0.081,0.241-0.194,0.241-0.34c0-0.168-0.133-0.306-0.4-0.412
				c-0.268-0.106-0.621-0.222-1.06-0.346c-0.242-0.066-0.478-0.145-0.709-0.237c-0.23-0.091-0.437-0.201-0.62-0.33
				c-0.183-0.127-0.332-0.276-0.445-0.444c-0.114-0.168-0.17-0.362-0.17-0.582c0-0.249,0.059-0.479,0.176-0.692
				c0.118-0.212,0.284-0.391,0.5-0.538c0.216-0.146,0.48-0.262,0.791-0.346c0.311-0.084,0.661-0.126,1.049-0.126
				c0.483,0,0.924,0.079,1.323,0.236c0.399,0.157,0.741,0.328,1.027,0.511l-0.725,0.966c-0.249-0.146-0.506-0.269-0.769-0.368
				c-0.263-0.099-0.538-0.148-0.824-0.148c-0.344,0-0.587,0.037-0.73,0.109c-0.143,0.073-0.214,0.179-0.214,0.319
				c0,0.081,0.036,0.154,0.109,0.219c0.073,0.066,0.172,0.125,0.296,0.176s0.273,0.101,0.445,0.148
				c0.171,0.048,0.353,0.097,0.543,0.148c0.271,0.073,0.527,0.156,0.769,0.247c0.24,0.091,0.454,0.199,0.636,0.324
				c0.183,0.124,0.329,0.274,0.44,0.45c0.109,0.176,0.164,0.381,0.164,0.615c0,0.249-0.059,0.479-0.175,0.692
				c-0.118,0.212-0.287,0.396-0.511,0.554c-0.223,0.157-0.502,0.282-0.834,0.374c-0.334,0.091-0.719,0.137-1.159,0.137
				c-0.491,0-0.97-0.081-1.439-0.242c-0.468-0.161-0.878-0.358-1.23-0.593L335.914,50.478z"/>
			<path fill="#010101" d="M343.194,53.629c0.952-0.33,1.428-0.849,1.428-1.56c-0.029,0.008-0.07,0.011-0.121,0.011
				c-0.154,0-0.302-0.023-0.446-0.071c-0.142-0.048-0.268-0.119-0.378-0.214c-0.109-0.095-0.197-0.213-0.264-0.352
				c-0.065-0.139-0.098-0.3-0.098-0.483c0-0.344,0.119-0.619,0.357-0.824c0.238-0.205,0.529-0.308,0.874-0.308
				c0.454,0,0.794,0.167,1.021,0.5c0.227,0.333,0.341,0.796,0.341,1.389c0,0.703-0.194,1.296-0.583,1.779
				c-0.388,0.482-0.962,0.841-1.724,1.076L343.194,53.629z M343.216,47.488c0-0.183,0.032-0.353,0.093-0.51
				c0.063-0.157,0.149-0.295,0.258-0.412c0.109-0.117,0.243-0.208,0.4-0.275c0.157-0.065,0.331-0.099,0.522-0.099
				c0.19,0,0.364,0.033,0.521,0.099c0.157,0.066,0.291,0.158,0.4,0.275c0.111,0.117,0.197,0.254,0.258,0.412
				c0.062,0.158,0.093,0.327,0.093,0.51c0,0.367-0.116,0.672-0.352,0.917c-0.234,0.245-0.542,0.368-0.921,0.368
				c-0.381,0-0.689-0.123-0.923-0.368C343.334,48.16,343.216,47.854,343.216,47.488z"/>
		</g>
	</g>
	<use xlink:href="#XMLID_228_"  fill="none" stroke="#000000"/>
</g>
<g>
	<defs>
		<rect id="XMLID_226_" x="0.5" y="0.5" width="198.426" height="282.074"/>
	</defs>
	<clipPath id="XMLID_255_">
		<use xlink:href="#XMLID_226_" />
	</clipPath>
	
		<line clip-path="url(#XMLID_255_)" fill="none" stroke="#000000" stroke-width="0.25" stroke-miterlimit="10" x1="14.117" y1="17.035" x2="14.117" y2="7.309"/>
	
		<line clip-path="url(#XMLID_255_)" fill="none" stroke="#000000" stroke-width="0.25" stroke-miterlimit="10" x1="185.309" y1="17.035" x2="185.309" y2="7.309"/>
	
		<line clip-path="url(#XMLID_255_)" fill="none" stroke="#000000" stroke-width="0.25" stroke-miterlimit="10" x1="188.227" y1="19.954" x2="197.953" y2="19.954"/>
	
		<line clip-path="url(#XMLID_255_)" fill="none" stroke="#000000" stroke-width="0.25" stroke-miterlimit="10" x1="188.227" y1="263.122" x2="197.953" y2="263.122"/>
	
		<line clip-path="url(#XMLID_255_)" fill="none" stroke="#000000" stroke-width="0.25" stroke-miterlimit="10" x1="185.309" y1="266.039" x2="185.309" y2="275.765"/>
	
		<line clip-path="url(#XMLID_255_)" fill="none" stroke="#000000" stroke-width="0.25" stroke-miterlimit="10" x1="14.117" y1="266.039" x2="14.117" y2="275.765"/>
	
		<line clip-path="url(#XMLID_255_)" fill="none" stroke="#000000" stroke-width="0.25" stroke-miterlimit="10" x1="11.2" y1="263.122" x2="1.473" y2="263.122"/>
	
		<line clip-path="url(#XMLID_255_)" fill="none" stroke="#000000" stroke-width="0.25" stroke-miterlimit="10" x1="11.2" y1="19.954" x2="1.473" y2="19.954"/>
	<g clip-path="url(#XMLID_255_)">
		<defs>
			<rect id="XMLID_225_" x="14.117" y="19.954" width="171.192" height="243.168"/>
		</defs>
		<clipPath id="XMLID_256_">
			<use xlink:href="#XMLID_225_" />
		</clipPath>
		<g clip-path="url(#XMLID_256_)">
			<path d="M24.24,33.566h1.208l0.121,0.681h0.044c0.103-0.227,0.243-0.419,0.423-0.576c0.179-0.157,0.427-0.236,0.741-0.236
				c0.241,0,0.445,0.074,0.61,0.225c0.165,0.15,0.279,0.371,0.346,0.665c0.102-0.249,0.25-0.459,0.444-0.632
				c0.194-0.172,0.445-0.257,0.752-0.257c0.38,0,0.677,0.155,0.89,0.466c0.212,0.311,0.318,0.741,0.318,1.291v3.821h-1.516v-3.701
				c0-0.336-0.103-0.504-0.308-0.504c-0.197,0-0.366,0.175-0.505,0.526v3.679h-1.241v-3.701c0-0.336-0.107-0.504-0.319-0.504
				c-0.103,0-0.19,0.043-0.264,0.131c-0.073,0.088-0.15,0.22-0.23,0.395v3.679H24.24V33.566z"/>
			<path d="M31.103,37.498c0-0.308,0.066-0.576,0.198-0.808c0.132-0.23,0.342-0.426,0.632-0.587c0.289-0.161,0.66-0.292,1.114-0.39
				c0.454-0.099,1.002-0.167,1.647-0.203c-0.03-0.249-0.138-0.443-0.324-0.583c-0.187-0.139-0.467-0.208-0.84-0.208
				c-0.264,0-0.529,0.046-0.796,0.138c-0.267,0.091-0.554,0.214-0.862,0.368l-0.571-1.054c0.373-0.212,0.774-0.388,1.203-0.527
				c0.428-0.14,0.876-0.208,1.345-0.208c0.761,0,1.362,0.201,1.8,0.604c0.44,0.402,0.659,1.021,0.659,1.856v3.119H34.99
				l-0.121-0.615h-0.043c-0.278,0.212-0.583,0.39-0.912,0.533c-0.33,0.142-0.67,0.214-1.021,0.214c-0.278,0-0.527-0.042-0.747-0.126
				c-0.22-0.084-0.406-0.201-0.56-0.352s-0.272-0.324-0.357-0.521S31.103,37.732,31.103,37.498z M32.651,37.377
				c0,0.176,0.068,0.306,0.203,0.39c0.135,0.084,0.321,0.126,0.555,0.126c0.242,0,0.469-0.05,0.681-0.148
				c0.212-0.099,0.414-0.222,0.604-0.369v-0.9c-0.403,0.022-0.736,0.059-1,0.11s-0.473,0.115-0.626,0.192s-0.262,0.167-0.324,0.27
				C32.682,37.151,32.651,37.26,32.651,37.377z"/>
			<path d="M38.294,33.566h1.318l0.132,1.186h0.033c0.271-0.446,0.597-0.778,0.978-0.994c0.381-0.215,0.79-0.323,1.23-0.323
				c0.241,0,0.438,0.018,0.587,0.055c0.15,0.036,0.306,0.091,0.467,0.165l-0.329,1.351c-0.168-0.051-0.32-0.089-0.456-0.115
				c-0.135-0.026-0.306-0.039-0.511-0.039c-0.336,0-0.668,0.099-0.993,0.297c-0.326,0.198-0.606,0.542-0.84,1.032v2.833h-1.615
				V33.566z"/>
			<path d="M44.443,31.315h1.614v4.415l0.033-0.011l2.01-2.153h1.768l-2.064,2.24l2.23,3.207h-1.747l-1.417-2.141l-0.813,0.79v1.351
				h-1.614V31.315z"/>
			<path d="M51.504,37.3c0.314,0.198,0.631,0.355,0.95,0.473c0.318,0.117,0.661,0.175,1.026,0.175c0.374,0,0.641-0.04,0.802-0.121
				c0.161-0.081,0.241-0.194,0.241-0.341c0-0.168-0.133-0.305-0.401-0.411c-0.267-0.106-0.621-0.222-1.06-0.346
				c-0.242-0.066-0.478-0.145-0.708-0.236c-0.23-0.091-0.437-0.201-0.62-0.33c-0.183-0.128-0.332-0.276-0.445-0.444
				c-0.113-0.168-0.17-0.362-0.17-0.583c0-0.249,0.059-0.479,0.176-0.692c0.117-0.212,0.284-0.392,0.5-0.538
				c0.216-0.146,0.48-0.261,0.791-0.346c0.311-0.084,0.66-0.125,1.048-0.125c0.483,0,0.924,0.079,1.324,0.236
				c0.398,0.157,0.741,0.327,1.027,0.51l-0.725,0.967c-0.25-0.147-0.506-0.27-0.769-0.369c-0.263-0.098-0.538-0.148-0.824-0.148
				c-0.344,0-0.587,0.037-0.73,0.11c-0.143,0.073-0.214,0.18-0.214,0.318c0,0.081,0.036,0.154,0.109,0.22
				c0.073,0.066,0.172,0.125,0.297,0.176s0.272,0.101,0.445,0.148c0.172,0.048,0.353,0.097,0.543,0.148
				c0.271,0.073,0.527,0.156,0.769,0.247c0.242,0.091,0.454,0.199,0.637,0.324c0.183,0.125,0.329,0.275,0.439,0.451
				c0.109,0.176,0.164,0.381,0.164,0.614c0,0.25-0.058,0.48-0.175,0.693c-0.117,0.212-0.288,0.397-0.511,0.554
				c-0.223,0.157-0.501,0.282-0.834,0.373c-0.333,0.092-0.719,0.138-1.159,0.138c-0.491,0-0.97-0.081-1.439-0.242
				c-0.468-0.161-0.878-0.358-1.229-0.593L51.504,37.3z"/>
			<path d="M58.807,34.311c0-0.183,0.031-0.354,0.093-0.511c0.063-0.157,0.148-0.294,0.258-0.412
				c0.109-0.117,0.244-0.208,0.401-0.274s0.332-0.099,0.521-0.099c0.191,0,0.364,0.033,0.521,0.099s0.292,0.158,0.401,0.274
				c0.11,0.117,0.196,0.254,0.258,0.412c0.062,0.157,0.094,0.328,0.094,0.511c0,0.366-0.118,0.672-0.352,0.917
				c-0.234,0.245-0.542,0.368-0.922,0.368s-0.688-0.123-0.922-0.368C58.923,34.983,58.807,34.677,58.807,34.311z M58.807,37.86
				c0-0.183,0.031-0.354,0.093-0.511c0.063-0.157,0.148-0.294,0.258-0.412c0.109-0.117,0.244-0.208,0.401-0.275
				c0.157-0.065,0.332-0.098,0.521-0.098c0.191,0,0.364,0.033,0.521,0.098c0.157,0.066,0.292,0.158,0.401,0.275
				c0.11,0.117,0.196,0.254,0.258,0.412c0.062,0.157,0.094,0.328,0.094,0.511c0,0.366-0.118,0.672-0.352,0.917
				c-0.234,0.245-0.542,0.368-0.922,0.368s-0.688-0.123-0.922-0.368C58.923,38.532,58.807,38.227,58.807,37.86z"/>
		</g>
		<g clip-path="url(#XMLID_256_)">
			<path d="M37.757,49.466c0-0.454,0.086-0.858,0.258-1.213c0.171-0.355,0.402-0.653,0.692-0.895
				c0.289-0.242,0.624-0.426,1.005-0.554c0.38-0.128,0.779-0.192,1.197-0.192c0.431,0,0.822,0.069,1.169,0.208
				c0.348,0.139,0.639,0.314,0.874,0.527l-0.747,1c-0.403-0.286-0.805-0.429-1.208-0.429c-0.468,0-0.849,0.14-1.142,0.417
				c-0.293,0.278-0.439,0.655-0.439,1.131s0.141,0.853,0.422,1.131c0.282,0.278,0.65,0.417,1.104,0.417
				c0.286,0,0.549-0.051,0.791-0.154s0.458-0.223,0.648-0.362l0.659,1.021c-0.329,0.278-0.694,0.481-1.092,0.609
				c-0.399,0.128-0.785,0.192-1.159,0.192c-0.432,0-0.831-0.064-1.197-0.192c-0.367-0.128-0.687-0.313-0.961-0.555
				c-0.274-0.242-0.488-0.54-0.642-0.895C37.834,50.325,37.757,49.92,37.757,49.466z"/>
			<path d="M44.882,46.743H46.2l0.132,1.186h0.033c0.271-0.446,0.597-0.778,0.978-0.994c0.381-0.215,0.79-0.323,1.229-0.323
				c0.242,0,0.438,0.018,0.587,0.055c0.15,0.036,0.306,0.091,0.467,0.165l-0.33,1.351c-0.168-0.051-0.32-0.089-0.456-0.115
				c-0.136-0.026-0.306-0.039-0.51-0.039c-0.337,0-0.668,0.099-0.994,0.297c-0.326,0.198-0.606,0.542-0.84,1.032v2.833h-1.615
				V46.743z"/>
			<path d="M50.713,49.466c0-0.454,0.077-0.858,0.23-1.213s0.361-0.653,0.621-0.895s0.557-0.426,0.89-0.554
				c0.333-0.128,0.679-0.192,1.038-0.192s0.705,0.063,1.038,0.192c0.333,0.128,0.629,0.313,0.889,0.554
				c0.261,0.242,0.467,0.54,0.621,0.895s0.23,0.759,0.23,1.213s-0.076,0.858-0.23,1.213c-0.154,0.355-0.36,0.653-0.621,0.895
				c-0.26,0.242-0.556,0.426-0.889,0.555c-0.333,0.128-0.679,0.192-1.038,0.192s-0.705-0.064-1.038-0.192
				c-0.333-0.128-0.63-0.313-0.89-0.555s-0.467-0.54-0.621-0.895C50.79,50.325,50.713,49.92,50.713,49.466z M52.372,49.466
				c0,0.476,0.093,0.853,0.279,1.131s0.467,0.417,0.84,0.417c0.373,0,0.653-0.139,0.84-0.417c0.187-0.278,0.28-0.656,0.28-1.131
				s-0.093-0.853-0.28-1.131c-0.187-0.278-0.467-0.417-0.84-0.417c-0.374,0-0.654,0.14-0.84,0.417
				C52.465,48.614,52.372,48.991,52.372,49.466z"/>
			<path d="M59.191,52.618v1.593h-1.614v-7.468h1.317l0.121,0.55h0.033c0.219-0.198,0.472-0.361,0.758-0.489
				c0.285-0.128,0.574-0.192,0.867-0.192c0.336,0,0.641,0.065,0.911,0.197c0.271,0.131,0.502,0.318,0.692,0.56
				c0.19,0.241,0.335,0.532,0.434,0.873c0.099,0.34,0.148,0.719,0.148,1.137c0,0.468-0.066,0.884-0.198,1.246
				c-0.131,0.362-0.308,0.67-0.527,0.922c-0.22,0.253-0.471,0.445-0.752,0.577c-0.283,0.131-0.577,0.198-0.884,0.198
				c-0.498,0-0.952-0.198-1.361-0.593L59.191,52.618z M59.191,50.642c0.154,0.132,0.313,0.225,0.478,0.28
				c0.165,0.055,0.316,0.082,0.456,0.082c0.307,0,0.563-0.126,0.769-0.379c0.205-0.253,0.308-0.661,0.308-1.224
				c0-0.981-0.334-1.472-1-1.472c-0.345,0-0.681,0.169-1.01,0.505V50.642z"/>
			<path d="M65.373,53.628c0.952-0.33,1.427-0.849,1.427-1.559c-0.029,0.007-0.07,0.011-0.121,0.011
				c-0.154,0-0.302-0.023-0.444-0.071c-0.143-0.048-0.269-0.119-0.379-0.214c-0.109-0.096-0.197-0.212-0.263-0.351
				c-0.065-0.14-0.099-0.3-0.099-0.483c0-0.344,0.119-0.619,0.357-0.824s0.529-0.308,0.873-0.308c0.454,0,0.794,0.167,1.021,0.5
				c0.227,0.333,0.341,0.796,0.341,1.389c0,0.703-0.194,1.296-0.582,1.779s-0.962,0.842-1.724,1.076L65.373,53.628z M65.395,47.487
				c0-0.183,0.031-0.354,0.093-0.511s0.148-0.294,0.258-0.412c0.109-0.117,0.244-0.208,0.401-0.274s0.332-0.099,0.521-0.099
				c0.19,0,0.364,0.033,0.521,0.099c0.158,0.066,0.291,0.158,0.401,0.274c0.109,0.117,0.195,0.254,0.258,0.412
				c0.062,0.157,0.093,0.328,0.093,0.511c0,0.366-0.117,0.672-0.351,0.917c-0.234,0.245-0.542,0.368-0.923,0.368
				s-0.688-0.123-0.922-0.368C65.511,48.159,65.395,47.854,65.395,47.487z"/>
		</g>
	</g>
	<use xlink:href="#XMLID_226_"  fill="none" stroke="#000000" stroke-miterlimit="10"/>
</g>
<g>
	<defs>
		<rect id="XMLID_224_" x="0.5" y="322.534" width="198.426" height="282.075"/>
	</defs>
	<clipPath id="XMLID_257_">
		<use xlink:href="#XMLID_224_" />
	</clipPath>
	
		<line clip-path="url(#XMLID_257_)" fill="none" stroke="#000000" stroke-width="0.25" stroke-miterlimit="10" x1="14.117" y1="339.069" x2="14.117" y2="329.342"/>
	
		<line clip-path="url(#XMLID_257_)" fill="none" stroke="#000000" stroke-width="0.25" stroke-miterlimit="10" x1="185.309" y1="339.069" x2="185.309" y2="329.342"/>
	
		<line clip-path="url(#XMLID_257_)" fill="none" stroke="#000000" stroke-width="0.25" stroke-miterlimit="10" x1="188.227" y1="341.988" x2="197.953" y2="341.988"/>
	
		<line clip-path="url(#XMLID_257_)" fill="none" stroke="#000000" stroke-width="0.25" stroke-miterlimit="10" x1="188.227" y1="585.157" x2="197.953" y2="585.157"/>
	
		<line clip-path="url(#XMLID_257_)" fill="none" stroke="#000000" stroke-width="0.25" stroke-miterlimit="10" x1="185.309" y1="588.075" x2="185.309" y2="597.8"/>
	
		<line clip-path="url(#XMLID_257_)" fill="none" stroke="#000000" stroke-width="0.25" stroke-miterlimit="10" x1="14.117" y1="588.075" x2="14.117" y2="597.8"/>
	
		<line clip-path="url(#XMLID_257_)" fill="none" stroke="#000000" stroke-width="0.25" stroke-miterlimit="10" x1="11.2" y1="585.157" x2="1.473" y2="585.157"/>
	
		<line clip-path="url(#XMLID_257_)" fill="none" stroke="#000000" stroke-width="0.25" stroke-miterlimit="10" x1="11.2" y1="341.988" x2="1.473" y2="341.988"/>
	
		<line clip-path="url(#XMLID_257_)" fill="none" stroke="#000000" stroke-width="0.25" stroke-miterlimit="10" x1="99.713" y1="339.069" x2="99.713" y2="329.342"/>
	
		<line clip-path="url(#XMLID_257_)" fill="none" stroke="#000000" stroke-width="0.25" stroke-miterlimit="10" x1="89.986" y1="339.069" x2="109.439" y2="339.069"/>
	
		<line clip-path="url(#XMLID_257_)" fill="none" stroke="#000000" stroke-width="0.25" stroke-miterlimit="10" x1="99.713" y1="588.075" x2="99.713" y2="597.8"/>
	
		<line clip-path="url(#XMLID_257_)" fill="none" stroke="#000000" stroke-width="0.25" stroke-miterlimit="10" x1="109.439" y1="588.075" x2="89.986" y2="588.075"/>
	
		<line clip-path="url(#XMLID_257_)" fill="none" stroke="#000000" stroke-width="0.25" stroke-miterlimit="10" x1="188.227" y1="463.572" x2="197.953" y2="463.572"/>
	
		<line clip-path="url(#XMLID_257_)" fill="none" stroke="#000000" stroke-width="0.25" stroke-miterlimit="10" x1="188.227" y1="453.844" x2="188.227" y2="473.299"/>
	
		<line clip-path="url(#XMLID_257_)" fill="none" stroke="#000000" stroke-width="0.25" stroke-miterlimit="10" x1="11.2" y1="463.572" x2="1.473" y2="463.572"/>
	
		<line clip-path="url(#XMLID_257_)" fill="none" stroke="#000000" stroke-width="0.25" stroke-miterlimit="10" x1="11.2" y1="473.299" x2="11.2" y2="453.844"/>
	<g clip-path="url(#XMLID_257_)">
		<defs>
			<rect id="XMLID_223_" x="14.117" y="341.988" width="171.192" height="243.169"/>
		</defs>
		<clipPath id="XMLID_258_">
			<use xlink:href="#XMLID_223_" />
		</clipPath>
		<g clip-path="url(#XMLID_258_)">
			<path d="M24.24,355.601h1.208l0.121,0.681h0.044c0.103-0.228,0.243-0.419,0.423-0.576c0.179-0.157,0.427-0.236,0.741-0.236
				c0.241,0,0.445,0.075,0.61,0.226c0.165,0.149,0.279,0.371,0.346,0.665c0.102-0.249,0.25-0.46,0.444-0.632
				c0.194-0.173,0.445-0.259,0.752-0.259c0.38,0,0.677,0.156,0.89,0.467c0.212,0.312,0.318,0.74,0.318,1.29v3.821h-1.516v-3.701
				c0-0.336-0.103-0.504-0.308-0.504c-0.197,0-0.366,0.175-0.505,0.526v3.679h-1.241v-3.701c0-0.336-0.107-0.504-0.319-0.504
				c-0.103,0-0.19,0.044-0.264,0.131c-0.073,0.089-0.15,0.221-0.23,0.396v3.679H24.24V355.601z"/>
			<path d="M31.103,359.533c0-0.308,0.066-0.577,0.198-0.808s0.342-0.426,0.632-0.587c0.289-0.161,0.66-0.291,1.114-0.39
				c0.454-0.1,1.002-0.167,1.647-0.204c-0.03-0.248-0.138-0.442-0.324-0.582c-0.187-0.138-0.467-0.208-0.84-0.208
				c-0.264,0-0.529,0.045-0.796,0.137c-0.267,0.092-0.554,0.215-0.862,0.368l-0.571-1.055c0.373-0.212,0.774-0.388,1.203-0.526
				c0.428-0.139,0.876-0.209,1.345-0.209c0.761,0,1.362,0.201,1.8,0.604c0.44,0.402,0.659,1.021,0.659,1.855v3.118H34.99
				l-0.121-0.615h-0.043c-0.278,0.214-0.583,0.392-0.912,0.533c-0.33,0.143-0.67,0.215-1.021,0.215
				c-0.278,0-0.527-0.042-0.747-0.127c-0.22-0.084-0.406-0.201-0.56-0.352s-0.272-0.324-0.357-0.521
				C31.145,359.983,31.103,359.766,31.103,359.533z M32.651,359.411c0,0.177,0.068,0.307,0.203,0.392
				c0.135,0.083,0.321,0.126,0.555,0.126c0.242,0,0.469-0.05,0.681-0.148c0.212-0.1,0.414-0.221,0.604-0.369v-0.899
				c-0.403,0.022-0.736,0.059-1,0.109c-0.263,0.052-0.473,0.115-0.626,0.193c-0.154,0.076-0.262,0.166-0.324,0.269
				C32.682,359.185,32.651,359.294,32.651,359.411z"/>
			<path d="M38.294,355.601h1.318l0.132,1.187h0.033c0.271-0.447,0.597-0.778,0.978-0.994s0.79-0.324,1.23-0.324
				c0.241,0,0.438,0.018,0.587,0.055c0.15,0.037,0.306,0.092,0.467,0.166l-0.329,1.351c-0.168-0.052-0.32-0.091-0.456-0.116
				c-0.135-0.026-0.306-0.038-0.511-0.038c-0.336,0-0.668,0.098-0.993,0.296c-0.326,0.198-0.606,0.542-0.84,1.032v2.833h-1.615
				V355.601z"/>
			<path d="M44.443,353.35h1.614v4.415l0.033-0.011l2.01-2.153h1.768l-2.064,2.24l2.23,3.206h-1.747l-1.417-2.141l-0.813,0.79v1.351
				h-1.614V353.35z"/>
			<path d="M51.504,359.334c0.314,0.198,0.631,0.355,0.95,0.473c0.318,0.116,0.661,0.176,1.026,0.176
				c0.374,0,0.641-0.04,0.802-0.121c0.161-0.08,0.241-0.193,0.241-0.34c0-0.168-0.133-0.307-0.401-0.412
				c-0.267-0.106-0.621-0.221-1.06-0.346c-0.242-0.066-0.478-0.145-0.708-0.236c-0.23-0.092-0.437-0.201-0.62-0.329
				c-0.183-0.129-0.332-0.276-0.445-0.444c-0.113-0.169-0.17-0.362-0.17-0.583c0-0.249,0.059-0.479,0.176-0.691
				s0.284-0.393,0.5-0.539s0.48-0.261,0.791-0.346c0.311-0.083,0.66-0.126,1.048-0.126c0.483,0,0.924,0.079,1.324,0.236
				c0.398,0.157,0.741,0.327,1.027,0.511l-0.725,0.966c-0.25-0.146-0.506-0.269-0.769-0.367s-0.538-0.149-0.824-0.149
				c-0.344,0-0.587,0.037-0.73,0.111c-0.143,0.072-0.214,0.179-0.214,0.318c0,0.08,0.036,0.153,0.109,0.219
				c0.073,0.066,0.172,0.124,0.297,0.176c0.125,0.051,0.272,0.102,0.445,0.148c0.172,0.048,0.353,0.097,0.543,0.148
				c0.271,0.072,0.527,0.156,0.769,0.246c0.242,0.092,0.454,0.2,0.637,0.324c0.183,0.124,0.329,0.274,0.439,0.451
				c0.109,0.175,0.164,0.38,0.164,0.614c0,0.25-0.058,0.479-0.175,0.692c-0.117,0.212-0.288,0.396-0.511,0.554
				c-0.223,0.157-0.501,0.282-0.834,0.374c-0.333,0.091-0.719,0.138-1.159,0.138c-0.491,0-0.97-0.081-1.439-0.242
				c-0.468-0.161-0.878-0.358-1.229-0.593L51.504,359.334z"/>
			<path d="M58.807,356.346c0-0.184,0.031-0.354,0.093-0.512c0.063-0.157,0.148-0.294,0.258-0.411
				c0.109-0.116,0.244-0.208,0.401-0.275c0.157-0.065,0.332-0.099,0.521-0.099c0.191,0,0.364,0.033,0.521,0.099
				c0.157,0.067,0.292,0.159,0.401,0.275c0.11,0.117,0.196,0.254,0.258,0.411c0.062,0.157,0.094,0.328,0.094,0.512
				c0,0.366-0.118,0.671-0.352,0.917c-0.234,0.245-0.542,0.368-0.922,0.368s-0.688-0.123-0.922-0.368
				C58.923,357.017,58.807,356.712,58.807,356.346z M58.807,359.895c0-0.184,0.031-0.354,0.093-0.512
				c0.063-0.157,0.148-0.294,0.258-0.411c0.109-0.116,0.244-0.208,0.401-0.274s0.332-0.099,0.521-0.099
				c0.191,0,0.364,0.032,0.521,0.099s0.292,0.158,0.401,0.274c0.11,0.117,0.196,0.254,0.258,0.411
				c0.062,0.157,0.094,0.328,0.094,0.512c0,0.366-0.118,0.671-0.352,0.917c-0.234,0.245-0.542,0.368-0.922,0.368
				s-0.688-0.123-0.922-0.368C58.923,360.566,58.807,360.261,58.807,359.895z"/>
		</g>
		<g clip-path="url(#XMLID_258_)">
			<path d="M37.757,371.501c0-0.454,0.086-0.859,0.258-1.215c0.171-0.354,0.402-0.653,0.692-0.894
				c0.289-0.242,0.624-0.427,1.005-0.556c0.38-0.128,0.779-0.191,1.197-0.191c0.431,0,0.822,0.068,1.169,0.208
				c0.348,0.14,0.639,0.314,0.874,0.528l-0.747,0.999c-0.403-0.286-0.805-0.43-1.208-0.43c-0.468,0-0.849,0.14-1.142,0.419
				c-0.293,0.277-0.439,0.654-0.439,1.131c0,0.476,0.141,0.853,0.422,1.13c0.282,0.279,0.65,0.417,1.104,0.417
				c0.286,0,0.549-0.05,0.791-0.152s0.458-0.224,0.648-0.362l0.659,1.021c-0.329,0.278-0.694,0.481-1.092,0.61
				c-0.399,0.127-0.785,0.191-1.159,0.191c-0.432,0-0.831-0.064-1.197-0.191c-0.367-0.129-0.687-0.313-0.961-0.556
				c-0.274-0.241-0.488-0.54-0.642-0.896C37.834,372.36,37.757,371.955,37.757,371.501z"/>
			<path d="M44.882,368.778H46.2l0.132,1.186h0.033c0.271-0.446,0.597-0.778,0.978-0.994c0.381-0.215,0.79-0.323,1.229-0.323
				c0.242,0,0.438,0.019,0.587,0.055c0.15,0.036,0.306,0.092,0.467,0.164l-0.33,1.352c-0.168-0.051-0.32-0.089-0.456-0.115
				c-0.136-0.026-0.306-0.038-0.51-0.038c-0.337,0-0.668,0.099-0.994,0.297c-0.326,0.196-0.606,0.541-0.84,1.032v2.832h-1.615
				V368.778z"/>
			<path d="M50.713,371.501c0-0.454,0.077-0.859,0.23-1.215c0.154-0.354,0.361-0.653,0.621-0.894c0.26-0.242,0.557-0.427,0.89-0.556
				c0.333-0.128,0.679-0.191,1.038-0.191s0.705,0.063,1.038,0.191c0.333,0.129,0.629,0.313,0.889,0.556
				c0.261,0.24,0.467,0.54,0.621,0.894c0.154,0.355,0.23,0.761,0.23,1.215c0,0.453-0.076,0.858-0.23,1.212
				c-0.154,0.355-0.36,0.654-0.621,0.896c-0.26,0.242-0.556,0.427-0.889,0.556c-0.333,0.127-0.679,0.191-1.038,0.191
				s-0.705-0.064-1.038-0.191c-0.333-0.129-0.63-0.313-0.89-0.556c-0.26-0.241-0.467-0.54-0.621-0.896
				C50.79,372.36,50.713,371.955,50.713,371.501z M52.372,371.501c0,0.476,0.093,0.853,0.279,1.13
				c0.187,0.279,0.467,0.417,0.84,0.417c0.373,0,0.653-0.138,0.84-0.417c0.187-0.277,0.28-0.654,0.28-1.13
				c0-0.477-0.093-0.854-0.28-1.131c-0.187-0.279-0.467-0.419-0.84-0.419c-0.374,0-0.654,0.14-0.84,0.419
				C52.465,370.648,52.372,371.025,52.372,371.501z"/>
			<path d="M59.191,374.653v1.593h-1.614v-7.468h1.317l0.121,0.55h0.033c0.219-0.198,0.472-0.361,0.758-0.49
				c0.285-0.128,0.574-0.191,0.867-0.191c0.336,0,0.641,0.066,0.911,0.197c0.271,0.131,0.502,0.318,0.692,0.561
				c0.19,0.24,0.335,0.532,0.434,0.872c0.099,0.341,0.148,0.72,0.148,1.138c0,0.468-0.066,0.883-0.198,1.245
				c-0.131,0.362-0.308,0.67-0.527,0.923c-0.22,0.253-0.471,0.444-0.752,0.577c-0.283,0.132-0.577,0.197-0.884,0.197
				c-0.498,0-0.952-0.197-1.361-0.594L59.191,374.653z M59.191,372.675c0.154,0.133,0.313,0.226,0.478,0.28
				c0.165,0.055,0.316,0.082,0.456,0.082c0.307,0,0.563-0.126,0.769-0.379s0.308-0.66,0.308-1.224c0-0.981-0.334-1.472-1-1.472
				c-0.345,0-0.681,0.169-1.01,0.506V372.675z"/>
			<path d="M70.697,371.501c0-0.454,0.086-0.859,0.259-1.215c0.171-0.354,0.402-0.653,0.691-0.894
				c0.29-0.242,0.625-0.427,1.005-0.556c0.38-0.128,0.779-0.191,1.197-0.191c0.431,0,0.822,0.068,1.169,0.208
				c0.348,0.14,0.639,0.314,0.873,0.528l-0.747,0.999c-0.403-0.286-0.805-0.43-1.208-0.43c-0.468,0-0.849,0.14-1.142,0.419
				c-0.293,0.277-0.439,0.654-0.439,1.131c0,0.476,0.141,0.853,0.422,1.13c0.282,0.279,0.65,0.417,1.104,0.417
				c0.285,0,0.549-0.05,0.791-0.152c0.241-0.103,0.457-0.224,0.647-0.362l0.659,1.021c-0.33,0.278-0.694,0.481-1.092,0.61
				c-0.399,0.127-0.786,0.191-1.159,0.191c-0.432,0-0.831-0.064-1.197-0.191c-0.367-0.129-0.687-0.313-0.961-0.556
				c-0.274-0.241-0.489-0.54-0.642-0.896C70.774,372.36,70.697,371.955,70.697,371.501z"/>
			<path d="M77.823,368.778h1.318l0.132,1.186h0.033c0.271-0.446,0.597-0.778,0.978-0.994c0.381-0.215,0.79-0.323,1.23-0.323
				c0.241,0,0.438,0.019,0.587,0.055c0.15,0.036,0.306,0.092,0.467,0.164l-0.329,1.352c-0.168-0.051-0.321-0.089-0.456-0.115
				s-0.306-0.038-0.51-0.038c-0.337,0-0.668,0.099-0.994,0.297c-0.326,0.196-0.606,0.541-0.84,1.032v2.832h-1.615V368.778z"/>
			<path d="M83.654,371.501c0-0.454,0.077-0.859,0.23-1.215c0.154-0.354,0.361-0.653,0.621-0.894c0.26-0.242,0.557-0.427,0.89-0.556
				c0.333-0.128,0.679-0.191,1.038-0.191s0.705,0.063,1.038,0.191c0.333,0.129,0.63,0.313,0.89,0.556
				c0.26,0.24,0.467,0.54,0.621,0.894c0.154,0.355,0.23,0.761,0.23,1.215c0,0.453-0.077,0.858-0.23,1.212
				c-0.154,0.355-0.36,0.654-0.621,0.896c-0.26,0.242-0.557,0.427-0.89,0.556c-0.333,0.127-0.679,0.191-1.038,0.191
				s-0.705-0.064-1.038-0.191c-0.333-0.129-0.63-0.313-0.89-0.556c-0.26-0.241-0.467-0.54-0.621-0.896
				C83.731,372.36,83.654,371.955,83.654,371.501z M85.313,371.501c0,0.476,0.093,0.853,0.279,1.13
				c0.187,0.279,0.467,0.417,0.84,0.417s0.653-0.138,0.84-0.417c0.187-0.277,0.28-0.654,0.28-1.13c0-0.477-0.094-0.854-0.28-1.131
				c-0.187-0.279-0.467-0.419-0.84-0.419s-0.653,0.14-0.84,0.419C85.406,370.648,85.313,371.025,85.313,371.501z"/>
			<path d="M91.033,372.511c0.314,0.197,0.631,0.355,0.95,0.472c0.318,0.118,0.661,0.177,1.026,0.177
				c0.374,0,0.641-0.041,0.802-0.122c0.161-0.08,0.241-0.194,0.241-0.34c0-0.169-0.133-0.306-0.401-0.412
				c-0.267-0.105-0.621-0.222-1.06-0.346c-0.242-0.065-0.478-0.145-0.708-0.236c-0.231-0.091-0.438-0.201-0.621-0.33
				c-0.183-0.127-0.332-0.275-0.445-0.444c-0.113-0.168-0.17-0.362-0.17-0.582c0-0.249,0.059-0.479,0.176-0.691
				c0.117-0.212,0.284-0.392,0.5-0.538c0.216-0.146,0.48-0.261,0.791-0.346s0.66-0.126,1.048-0.126c0.483,0,0.924,0.078,1.324,0.235
				c0.398,0.157,0.741,0.328,1.027,0.512l-0.726,0.967c-0.249-0.148-0.504-0.27-0.768-0.369c-0.264-0.099-0.538-0.148-0.824-0.148
				c-0.344,0-0.587,0.037-0.73,0.109c-0.143,0.074-0.214,0.181-0.214,0.319c0,0.08,0.036,0.154,0.109,0.22s0.172,0.124,0.297,0.175
				c0.125,0.052,0.272,0.102,0.445,0.149c0.172,0.048,0.353,0.097,0.543,0.147c0.271,0.074,0.527,0.156,0.769,0.247
				c0.242,0.092,0.454,0.2,0.637,0.324c0.183,0.125,0.329,0.275,0.438,0.45c0.11,0.176,0.166,0.381,0.166,0.615
				c0,0.249-0.059,0.479-0.176,0.691c-0.117,0.212-0.287,0.398-0.51,0.556c-0.224,0.157-0.502,0.281-0.835,0.373
				c-0.333,0.092-0.72,0.137-1.159,0.137c-0.491,0-0.97-0.081-1.438-0.242c-0.469-0.16-0.879-0.358-1.23-0.592L91.033,372.511z"/>
			<path d="M97.621,372.511c0.314,0.197,0.631,0.355,0.949,0.472c0.319,0.118,0.661,0.177,1.027,0.177
				c0.374,0,0.641-0.041,0.802-0.122c0.161-0.08,0.242-0.194,0.242-0.34c0-0.169-0.133-0.306-0.401-0.412
				c-0.267-0.105-0.621-0.222-1.06-0.346c-0.242-0.065-0.478-0.145-0.709-0.236c-0.23-0.091-0.437-0.201-0.62-0.33
				c-0.184-0.127-0.332-0.275-0.445-0.444c-0.113-0.168-0.17-0.362-0.17-0.582c0-0.249,0.059-0.479,0.175-0.691
				c0.118-0.212,0.284-0.392,0.5-0.538c0.216-0.146,0.48-0.261,0.791-0.346s0.66-0.126,1.048-0.126c0.483,0,0.924,0.078,1.324,0.235
				c0.399,0.157,0.741,0.328,1.026,0.512l-0.725,0.967c-0.249-0.148-0.506-0.27-0.769-0.369c-0.263-0.099-0.538-0.148-0.824-0.148
				c-0.344,0-0.587,0.037-0.73,0.109c-0.143,0.074-0.214,0.181-0.214,0.319c0,0.08,0.036,0.154,0.109,0.22s0.172,0.124,0.297,0.175
				c0.124,0.052,0.272,0.102,0.445,0.149c0.171,0.048,0.353,0.097,0.543,0.147c0.271,0.074,0.527,0.156,0.769,0.247
				c0.241,0.092,0.454,0.2,0.636,0.324c0.183,0.125,0.33,0.275,0.44,0.45c0.109,0.176,0.164,0.381,0.164,0.615
				c0,0.249-0.059,0.479-0.175,0.691c-0.118,0.212-0.287,0.398-0.511,0.556c-0.223,0.157-0.502,0.281-0.834,0.373
				c-0.333,0.092-0.719,0.137-1.159,0.137c-0.491,0-0.97-0.081-1.439-0.242c-0.468-0.16-0.878-0.358-1.23-0.592L97.621,372.511z"/>
			<path d="M104.901,375.663c0.952-0.329,1.427-0.849,1.427-1.56c-0.029,0.008-0.07,0.011-0.12,0.011
				c-0.155,0-0.302-0.023-0.446-0.071c-0.142-0.048-0.268-0.119-0.379-0.213c-0.109-0.096-0.197-0.214-0.264-0.352
				c-0.066-0.14-0.099-0.301-0.099-0.484c0-0.343,0.119-0.617,0.357-0.822s0.529-0.308,0.874-0.308c0.454,0,0.794,0.166,1.021,0.499
				s0.34,0.797,0.34,1.389c0,0.703-0.194,1.296-0.583,1.78c-0.388,0.482-0.962,0.841-1.724,1.076L104.901,375.663z M104.923,369.521
				c0-0.182,0.031-0.353,0.093-0.51c0.063-0.157,0.149-0.295,0.258-0.411c0.109-0.118,0.244-0.209,0.401-0.275
				c0.157-0.065,0.331-0.098,0.522-0.098c0.19,0,0.364,0.032,0.521,0.098c0.157,0.066,0.291,0.157,0.4,0.275
				c0.111,0.116,0.197,0.254,0.259,0.411s0.093,0.328,0.093,0.51c0,0.367-0.116,0.673-0.352,0.918
				c-0.233,0.244-0.541,0.367-0.921,0.367c-0.381,0-0.689-0.123-0.923-0.367C105.041,370.194,104.923,369.888,104.923,369.521z"/>
		</g>
	</g>
	<use xlink:href="#XMLID_224_"  fill="none" stroke="#000000" stroke-miterlimit="10"/>
</g>
<g>
	<defs>
		<rect id="XMLID_222_" x="238.478" y="322.534" width="198.529" height="282.224"/>
	</defs>
	<clipPath id="XMLID_259_">
		<use xlink:href="#XMLID_222_" />
	</clipPath>
	
		<line clip-path="url(#XMLID_259_)" fill="none" stroke="#000000" stroke-width="0.25" stroke-miterlimit="10" x1="248.209" y1="341.998" x2="248.209" y2="328.374"/>
	
		<line clip-path="url(#XMLID_259_)" fill="none" stroke="#000000" stroke-width="0.25" stroke-miterlimit="10" x1="252.103" y1="338.105" x2="252.103" y2="328.374"/>
	
		<line clip-path="url(#XMLID_259_)" fill="none" stroke="#000000" stroke-width="0.25" stroke-miterlimit="10" x1="423.383" y1="338.105" x2="423.383" y2="328.374"/>
	
		<line clip-path="url(#XMLID_259_)" fill="none" stroke="#000000" stroke-width="0.25" stroke-miterlimit="10" x1="427.276" y1="341.998" x2="427.276" y2="328.374"/>
	
		<line clip-path="url(#XMLID_259_)" fill="none" stroke="#000000" stroke-width="0.25" stroke-miterlimit="10" x1="423.383" y1="338.105" x2="437.007" y2="338.105"/>
	
		<line clip-path="url(#XMLID_259_)" fill="none" stroke="#000000" stroke-width="0.25" stroke-miterlimit="10" x1="427.276" y1="341.998" x2="437.007" y2="341.998"/>
	
		<line clip-path="url(#XMLID_259_)" fill="none" stroke="#000000" stroke-width="0.25" stroke-miterlimit="10" x1="427.276" y1="585.292" x2="437.007" y2="585.292"/>
	
		<line clip-path="url(#XMLID_259_)" fill="none" stroke="#000000" stroke-width="0.25" stroke-miterlimit="10" x1="423.383" y1="589.185" x2="437.007" y2="589.185"/>
	
		<line clip-path="url(#XMLID_259_)" fill="none" stroke="#000000" stroke-width="0.25" stroke-miterlimit="10" x1="427.276" y1="585.292" x2="427.276" y2="598.917"/>
	
		<line clip-path="url(#XMLID_259_)" fill="none" stroke="#000000" stroke-width="0.25" stroke-miterlimit="10" x1="423.383" y1="589.185" x2="423.383" y2="598.917"/>
	
		<line clip-path="url(#XMLID_259_)" fill="none" stroke="#000000" stroke-width="0.25" stroke-miterlimit="10" x1="252.103" y1="589.185" x2="252.103" y2="598.917"/>
	
		<line clip-path="url(#XMLID_259_)" fill="none" stroke="#000000" stroke-width="0.25" stroke-miterlimit="10" x1="248.209" y1="585.292" x2="248.209" y2="598.917"/>
	
		<line clip-path="url(#XMLID_259_)" fill="none" stroke="#000000" stroke-width="0.25" stroke-miterlimit="10" x1="252.103" y1="589.185" x2="238.478" y2="589.185"/>
	
		<line clip-path="url(#XMLID_259_)" fill="none" stroke="#000000" stroke-width="0.25" stroke-miterlimit="10" x1="248.209" y1="585.292" x2="238.478" y2="585.292"/>
	
		<line clip-path="url(#XMLID_259_)" fill="none" stroke="#000000" stroke-width="0.25" stroke-miterlimit="10" x1="248.209" y1="341.998" x2="238.478" y2="341.998"/>
	
		<line clip-path="url(#XMLID_259_)" fill="none" stroke="#000000" stroke-width="0.25" stroke-miterlimit="10" x1="252.103" y1="338.105" x2="238.478" y2="338.105"/>
	
		<line clip-path="url(#XMLID_259_)" fill="none" stroke="#000000" stroke-width="0.25" stroke-miterlimit="10" x1="337.744" y1="338.105" x2="337.744" y2="328.374"/>
	
		<line clip-path="url(#XMLID_259_)" fill="none" stroke="#000000" stroke-width="0.25" stroke-miterlimit="10" x1="328.012" y1="334.212" x2="347.475" y2="334.212"/>
	
		<line clip-path="url(#XMLID_259_)" fill="none" stroke="#000000" stroke-width="0.25" stroke-miterlimit="10" x1="337.744" y1="589.185" x2="337.744" y2="598.917"/>
	
		<line clip-path="url(#XMLID_259_)" fill="none" stroke="#000000" stroke-width="0.25" stroke-miterlimit="10" x1="347.475" y1="593.077" x2="328.012" y2="593.077"/>
	
		<line clip-path="url(#XMLID_259_)" fill="none" stroke="#000000" stroke-width="0.25" stroke-miterlimit="10" x1="427.276" y1="463.645" x2="437.007" y2="463.645"/>
	
		<line clip-path="url(#XMLID_259_)" fill="none" stroke="#000000" stroke-width="0.25" stroke-miterlimit="10" x1="431.169" y1="453.914" x2="431.169" y2="473.377"/>
	
		<line clip-path="url(#XMLID_259_)" fill="none" stroke="#000000" stroke-width="0.25" stroke-miterlimit="10" x1="248.209" y1="463.645" x2="238.478" y2="463.645"/>
	
		<line clip-path="url(#XMLID_259_)" fill="none" stroke="#000000" stroke-width="0.25" stroke-miterlimit="10" x1="244.317" y1="473.377" x2="244.317" y2="453.914"/>
	<g clip-path="url(#XMLID_259_)">
		<defs>
			<path id="XMLID_221_" d="M248.209,338.105h179.067v251.08H248.209V338.105z M238.478,322.534h198.529v282.224H238.478V322.534z"
				/>
		</defs>
		<clipPath id="XMLID_260_">
			<use xlink:href="#XMLID_221_" />
		</clipPath>
		<g clip-path="url(#XMLID_260_)">
			<defs>
				<rect id="XMLID_220_" x="238.478" y="322.534" width="198.529" height="282.224"/>
			</defs>
			<clipPath id="XMLID_261_">
				<use xlink:href="#XMLID_220_" />
			</clipPath>
			<g clip-path="url(#XMLID_261_)">
				<defs>
					<rect id="XMLID_219_" x="249.464" y="328.027" width="198.529" height="282.224"/>
				</defs>
				<clipPath id="XMLID_262_">
					<use xlink:href="#XMLID_219_" />
				</clipPath>
				<rect x="249.464" y="328.027" clip-path="url(#XMLID_262_)" width="4.807" height="4.806"/>
				
					<rect x="249.464" y="328.027" clip-path="url(#XMLID_262_)" fill="none" stroke="#524A48" stroke-width="0.75" width="4.807" height="4.806"/>
				<rect x="254.271" y="328.027" clip-path="url(#XMLID_262_)" width="4.807" height="4.806"/>
				
					<rect x="254.271" y="328.027" clip-path="url(#XMLID_262_)" fill="none" stroke="#524A48" stroke-width="0.75" width="4.807" height="4.806"/>
				<rect x="259.078" y="328.027" clip-path="url(#XMLID_262_)" fill="#100906" width="4.806" height="4.806"/>
				
					<rect x="259.078" y="328.027" clip-path="url(#XMLID_262_)" fill="none" stroke="#524A48" stroke-width="0.75" width="4.806" height="4.806"/>
				<rect x="263.884" y="328.027" clip-path="url(#XMLID_262_)" fill="#282220" width="4.806" height="4.806"/>
				
					<rect x="263.884" y="328.027" clip-path="url(#XMLID_262_)" fill="none" stroke="#524A48" stroke-width="0.75" width="4.806" height="4.806"/>
				<rect x="268.689" y="328.027" clip-path="url(#XMLID_262_)" fill="#3C3533" width="4.807" height="4.806"/>
				
					<rect x="268.689" y="328.027" clip-path="url(#XMLID_262_)" fill="none" stroke="#524A48" stroke-width="0.75" width="4.807" height="4.806"/>
				<rect x="273.497" y="328.027" clip-path="url(#XMLID_262_)" fill="#524A48" width="4.807" height="4.806"/>
				
					<rect x="273.497" y="328.027" clip-path="url(#XMLID_262_)" fill="none" stroke="#524A48" stroke-width="0.75" width="4.807" height="4.806"/>
				<rect x="278.304" y="328.027" clip-path="url(#XMLID_262_)" fill="#6B6361" width="4.807" height="4.806"/>
				
					<rect x="278.304" y="328.027" clip-path="url(#XMLID_262_)" fill="none" stroke="#524A48" stroke-width="0.75" width="4.807" height="4.806"/>
				<rect x="283.111" y="328.027" clip-path="url(#XMLID_262_)" fill="#89817F" width="4.806" height="4.806"/>
				
					<rect x="283.111" y="328.027" clip-path="url(#XMLID_262_)" fill="none" stroke="#524A48" stroke-width="0.75" width="4.806" height="4.806"/>
				<rect x="287.917" y="328.027" clip-path="url(#XMLID_262_)" fill="#A9A2A1" width="4.806" height="4.806"/>
				
					<rect x="287.917" y="328.027" clip-path="url(#XMLID_262_)" fill="none" stroke="#524A48" stroke-width="0.75" width="4.806" height="4.806"/>
				<rect x="292.722" y="328.027" clip-path="url(#XMLID_262_)" fill="#CECAC9" width="4.807" height="4.806"/>
				
					<rect x="292.722" y="328.027" clip-path="url(#XMLID_262_)" fill="none" stroke="#524A48" stroke-width="0.75" width="4.807" height="4.806"/>
				<rect x="297.529" y="328.027" clip-path="url(#XMLID_262_)" fill="#FFFFFF" width="4.807" height="4.806"/>
				
					<rect x="297.529" y="328.027" clip-path="url(#XMLID_262_)" fill="none" stroke="#524A48" stroke-width="0.75" width="4.807" height="4.806"/>
			</g>
			<g clip-path="url(#XMLID_261_)">
				<defs>
					<rect id="XMLID_218_" x="227.492" y="328.027" width="198.529" height="282.224"/>
				</defs>
				<clipPath id="XMLID_263_">
					<use xlink:href="#XMLID_218_" />
				</clipPath>
				<rect x="421.215" y="328.027" clip-path="url(#XMLID_263_)" fill="#939598" width="4.807" height="4.806"/>
				
					<rect x="421.215" y="328.027" clip-path="url(#XMLID_263_)" fill="none" stroke="#524A48" stroke-width="0.75" width="4.807" height="4.806"/>
				<rect x="416.409" y="328.027" clip-path="url(#XMLID_263_)" fill="#6CCFF6" width="4.806" height="4.806"/>
				
					<rect x="416.409" y="328.027" clip-path="url(#XMLID_263_)" fill="none" stroke="#524A48" stroke-width="0.75" width="4.806" height="4.806"/>
				<rect x="411.602" y="328.027" clip-path="url(#XMLID_263_)" fill="#F499C1" width="4.808" height="4.806"/>
				
					<rect x="411.602" y="328.027" clip-path="url(#XMLID_263_)" fill="none" stroke="#524A48" stroke-width="0.75" width="4.808" height="4.806"/>
				<rect x="406.795" y="328.027" clip-path="url(#XMLID_263_)" fill="#FFF799" width="4.807" height="4.806"/>
				
					<rect x="406.795" y="328.027" clip-path="url(#XMLID_263_)" fill="none" stroke="#524A48" stroke-width="0.75" width="4.807" height="4.806"/>
				<rect x="401.989" y="328.027" clip-path="url(#XMLID_263_)" width="4.806" height="4.806"/>
				
					<rect x="401.989" y="328.027" clip-path="url(#XMLID_263_)" fill="none" stroke="#524A48" stroke-width="0.75" width="4.806" height="4.806"/>
				<rect x="397.182" y="328.027" clip-path="url(#XMLID_263_)" fill="#ED1C24" width="4.808" height="4.806"/>
				
					<rect x="397.182" y="328.027" clip-path="url(#XMLID_263_)" fill="none" stroke="#524A48" stroke-width="0.75" width="4.808" height="4.806"/>
				<rect x="392.376" y="328.027" clip-path="url(#XMLID_263_)" fill="#00A650" width="4.806" height="4.806"/>
				
					<rect x="392.376" y="328.027" clip-path="url(#XMLID_263_)" fill="none" stroke="#524A48" stroke-width="0.75" width="4.806" height="4.806"/>
				<rect x="387.569" y="328.027" clip-path="url(#XMLID_263_)" fill="#2E3192" width="4.807" height="4.806"/>
				
					<rect x="387.569" y="328.027" clip-path="url(#XMLID_263_)" fill="none" stroke="#524A48" stroke-width="0.75" width="4.807" height="4.806"/>
				<rect x="382.763" y="328.027" clip-path="url(#XMLID_263_)" fill="#00ADEF" width="4.807" height="4.806"/>
				
					<rect x="382.763" y="328.027" clip-path="url(#XMLID_263_)" fill="none" stroke="#524A48" stroke-width="0.75" width="4.807" height="4.806"/>
				<rect x="377.957" y="328.027" clip-path="url(#XMLID_263_)" fill="#EC008C" width="4.806" height="4.806"/>
				
					<rect x="377.957" y="328.027" clip-path="url(#XMLID_263_)" fill="none" stroke="#524A48" stroke-width="0.75" width="4.806" height="4.806"/>
				<rect x="373.149" y="328.027" clip-path="url(#XMLID_263_)" fill="#FFF200" width="4.808" height="4.806"/>
				
					<rect x="373.149" y="328.027" clip-path="url(#XMLID_263_)" fill="none" stroke="#524A48" stroke-width="0.75" width="4.808" height="4.806"/>
			</g>
			<use xlink:href="#XMLID_220_"  fill-rule="evenodd" clip-rule="evenodd" fill="none" stroke="#000000" stroke-miterlimit="10"/>
		</g>
	</g>
	<g clip-path="url(#XMLID_259_)">
		<defs>
			<rect id="XMLID_217_" x="248.209" y="338.105" width="179.067" height="251.08"/>
		</defs>
		<clipPath id="XMLID_264_">
			<use xlink:href="#XMLID_217_" />
		</clipPath>
		<g clip-path="url(#XMLID_264_)">
			<path d="M262.229,355.617h1.208l0.122,0.682h0.044c0.103-0.228,0.243-0.419,0.422-0.577c0.179-0.157,0.426-0.235,0.742-0.235
				c0.241,0,0.444,0.075,0.61,0.225c0.164,0.15,0.28,0.371,0.346,0.665c0.103-0.25,0.25-0.46,0.444-0.631
				c0.194-0.173,0.446-0.259,0.753-0.259c0.38,0,0.677,0.156,0.89,0.466c0.212,0.313,0.318,0.743,0.318,1.292v3.823h-1.516v-3.702
				c0-0.338-0.103-0.506-0.308-0.506c-0.198,0-0.366,0.176-0.506,0.527v3.681h-1.241v-3.702c0-0.338-0.107-0.506-0.319-0.506
				c-0.103,0-0.19,0.043-0.264,0.132c-0.074,0.088-0.15,0.219-0.231,0.396v3.681h-1.516V355.617z"/>
			<path d="M269.094,359.55c0-0.308,0.066-0.577,0.198-0.808c0.131-0.229,0.342-0.427,0.632-0.588c0.289-0.16,0.66-0.29,1.116-0.39
				c0.454-0.099,1.002-0.167,1.647-0.204c-0.03-0.249-0.137-0.442-0.324-0.581c-0.188-0.14-0.468-0.209-0.841-0.209
				c-0.264,0-0.529,0.045-0.796,0.137c-0.268,0.092-0.555,0.215-0.862,0.369l-0.572-1.056c0.374-0.212,0.774-0.388,1.203-0.527
				c0.428-0.139,0.876-0.208,1.345-0.208c0.762,0,1.363,0.201,1.802,0.604c0.439,0.401,0.659,1.021,0.659,1.856v3.12h-1.318
				l-0.12-0.615h-0.045c-0.277,0.212-0.582,0.39-0.912,0.533c-0.33,0.142-0.67,0.213-1.021,0.213c-0.279,0-0.528-0.041-0.747-0.126
				c-0.22-0.084-0.407-0.2-0.561-0.351c-0.154-0.15-0.273-0.324-0.356-0.522C269.137,360.001,269.094,359.785,269.094,359.55z
				 M270.644,359.43c0,0.175,0.068,0.305,0.204,0.39s0.32,0.126,0.555,0.126c0.24,0,0.469-0.05,0.681-0.147
				c0.212-0.099,0.414-0.222,0.604-0.368v-0.901c-0.403,0.022-0.736,0.06-1,0.109c-0.264,0.053-0.473,0.115-0.626,0.193
				c-0.154,0.076-0.262,0.167-0.324,0.27C270.675,359.204,270.644,359.313,270.644,359.43z"/>
			<path d="M276.291,355.617h1.318l0.132,1.188h0.033c0.271-0.447,0.598-0.778,0.978-0.994c0.382-0.216,0.792-0.324,1.23-0.324
				c0.242,0,0.438,0.018,0.588,0.055s0.307,0.092,0.468,0.164l-0.33,1.353c-0.169-0.053-0.321-0.091-0.457-0.116
				s-0.305-0.039-0.51-0.039c-0.338,0-0.669,0.101-0.996,0.297c-0.325,0.198-0.605,0.543-0.841,1.034v2.834h-1.615V355.617z"/>
			<path d="M282.443,353.366h1.615v4.416l0.033-0.012l2.011-2.153h1.769l-2.065,2.242l2.229,3.208h-1.747l-1.417-2.143l-0.813,0.792
				v1.351h-1.615V353.366z"/>
			<path d="M289.506,359.352c0.316,0.198,0.632,0.355,0.95,0.474c0.319,0.117,0.662,0.175,1.028,0.175
				c0.373,0,0.641-0.04,0.801-0.12c0.161-0.081,0.242-0.194,0.242-0.341c0-0.168-0.134-0.307-0.4-0.411
				c-0.268-0.107-0.621-0.222-1.061-0.348c-0.241-0.065-0.477-0.144-0.708-0.235c-0.231-0.092-0.438-0.202-0.621-0.329
				c-0.183-0.129-0.331-0.277-0.444-0.446c-0.115-0.168-0.171-0.362-0.171-0.582c0-0.249,0.059-0.479,0.177-0.691
				c0.116-0.212,0.283-0.393,0.499-0.539c0.216-0.146,0.479-0.261,0.792-0.346c0.312-0.085,0.66-0.126,1.048-0.126
				c0.484,0,0.926,0.078,1.325,0.235c0.399,0.158,0.741,0.328,1.026,0.511l-0.725,0.967c-0.25-0.146-0.506-0.27-0.77-0.367
				c-0.264-0.099-0.539-0.148-0.824-0.148c-0.343,0-0.588,0.036-0.73,0.109c-0.144,0.074-0.214,0.18-0.214,0.319
				c0,0.08,0.037,0.154,0.111,0.22c0.072,0.065,0.171,0.124,0.296,0.175c0.125,0.052,0.272,0.102,0.444,0.149
				s0.354,0.097,0.544,0.147c0.271,0.074,0.527,0.156,0.768,0.247c0.242,0.092,0.456,0.2,0.637,0.324
				c0.183,0.125,0.33,0.275,0.44,0.451c0.109,0.175,0.164,0.38,0.164,0.615c0,0.249-0.058,0.48-0.175,0.692
				s-0.287,0.397-0.511,0.555c-0.223,0.157-0.502,0.281-0.835,0.373c-0.332,0.092-0.719,0.137-1.158,0.137
				c-0.491,0-0.971-0.079-1.44-0.24c-0.469-0.161-0.879-0.359-1.23-0.594L289.506,359.352z"/>
			<path d="M296.813,356.364c0-0.184,0.03-0.353,0.093-0.51c0.062-0.159,0.147-0.296,0.258-0.413c0.109-0.116,0.243-0.208,0.4-0.275
				c0.157-0.065,0.331-0.098,0.522-0.098c0.19,0,0.364,0.032,0.522,0.098c0.157,0.067,0.29,0.159,0.4,0.275
				c0.109,0.117,0.195,0.254,0.258,0.413c0.062,0.157,0.093,0.326,0.093,0.51c0,0.366-0.118,0.673-0.352,0.917
				c-0.235,0.246-0.543,0.368-0.923,0.368c-0.381,0-0.689-0.122-0.923-0.368C296.929,357.037,296.813,356.73,296.813,356.364z
				 M296.813,359.913c0-0.183,0.03-0.353,0.093-0.51c0.062-0.158,0.147-0.295,0.258-0.413c0.109-0.116,0.243-0.208,0.4-0.274
				c0.157-0.065,0.331-0.099,0.522-0.099c0.19,0,0.364,0.033,0.522,0.099c0.157,0.066,0.29,0.158,0.4,0.274
				c0.109,0.118,0.195,0.255,0.258,0.413c0.062,0.157,0.093,0.327,0.093,0.51c0,0.366-0.118,0.673-0.352,0.918
				c-0.235,0.246-0.543,0.367-0.923,0.367c-0.381,0-0.689-0.121-0.923-0.367C296.929,360.585,296.813,360.279,296.813,359.913z"/>
		</g>
		<g clip-path="url(#XMLID_264_)">
			<path d="M275.752,371.526c0-0.454,0.086-0.858,0.258-1.214c0.172-0.355,0.403-0.654,0.693-0.896
				c0.289-0.242,0.624-0.427,1.005-0.556c0.38-0.127,0.779-0.191,1.198-0.191c0.432,0,0.822,0.07,1.17,0.208
				c0.347,0.14,0.638,0.315,0.872,0.527l-0.747,1c-0.403-0.284-0.805-0.428-1.208-0.428c-0.469,0-0.849,0.139-1.143,0.417
				c-0.292,0.278-0.439,0.656-0.439,1.132s0.141,0.853,0.423,1.132c0.283,0.277,0.65,0.417,1.104,0.417
				c0.286,0,0.55-0.051,0.79-0.153c0.242-0.103,0.458-0.224,0.649-0.363l0.659,1.022c-0.33,0.277-0.694,0.481-1.094,0.609
				c-0.399,0.129-0.785,0.191-1.159,0.191c-0.432,0-0.832-0.063-1.198-0.191c-0.365-0.128-0.687-0.313-0.961-0.555
				c-0.274-0.242-0.488-0.54-0.643-0.896C275.831,372.384,275.752,371.98,275.752,371.526z"/>
			<path d="M282.882,368.801h1.319l0.131,1.187h0.033c0.271-0.447,0.598-0.778,0.978-0.994c0.381-0.216,0.792-0.324,1.23-0.324
				c0.242,0,0.438,0.018,0.588,0.055s0.306,0.092,0.468,0.164l-0.33,1.353c-0.169-0.052-0.321-0.091-0.457-0.115
				c-0.135-0.025-0.306-0.039-0.511-0.039c-0.336,0-0.667,0.1-0.994,0.296c-0.325,0.198-0.605,0.543-0.841,1.034v2.834h-1.615
				V368.801z"/>
			<path d="M288.716,371.526c0-0.454,0.077-0.858,0.229-1.214c0.155-0.355,0.361-0.654,0.621-0.896
				c0.261-0.242,0.558-0.427,0.89-0.556c0.333-0.127,0.68-0.191,1.039-0.191c0.358,0,0.704,0.064,1.038,0.191
				c0.334,0.129,0.63,0.313,0.89,0.556c0.26,0.241,0.468,0.54,0.621,0.896c0.155,0.355,0.231,0.76,0.231,1.214
				s-0.077,0.858-0.231,1.214c-0.153,0.355-0.361,0.653-0.621,0.896s-0.556,0.427-0.89,0.555c-0.333,0.129-0.679,0.191-1.038,0.191
				c-0.359,0-0.706-0.063-1.039-0.191c-0.332-0.128-0.629-0.313-0.89-0.555c-0.26-0.242-0.466-0.54-0.621-0.896
				C288.793,372.384,288.716,371.98,288.716,371.526z M290.375,371.526c0,0.476,0.093,0.853,0.28,1.132
				c0.188,0.277,0.468,0.417,0.841,0.417c0.374,0,0.654-0.14,0.841-0.417c0.186-0.279,0.279-0.656,0.279-1.132
				s-0.093-0.854-0.279-1.132c-0.187-0.278-0.467-0.417-0.841-0.417c-0.373,0-0.653,0.139-0.841,0.417
				C290.468,370.672,290.375,371.05,290.375,371.526z"/>
			<path d="M297.197,374.678v1.595h-1.615v-7.472h1.318l0.12,0.549h0.033c0.22-0.198,0.473-0.36,0.759-0.489
				c0.286-0.127,0.574-0.191,0.868-0.191c0.336,0,0.64,0.065,0.912,0.197c0.271,0.133,0.501,0.318,0.692,0.561
				c0.19,0.242,0.335,0.533,0.433,0.873c0.1,0.341,0.149,0.72,0.149,1.138c0,0.469-0.065,0.885-0.198,1.247
				c-0.131,0.362-0.308,0.67-0.527,0.923c-0.219,0.253-0.471,0.444-0.752,0.577c-0.282,0.131-0.577,0.196-0.885,0.196
				c-0.498,0-0.952-0.196-1.362-0.592L297.197,374.678z M297.197,372.702c0.153,0.131,0.313,0.226,0.477,0.28
				c0.166,0.055,0.317,0.082,0.457,0.082c0.308,0,0.563-0.126,0.768-0.379s0.309-0.662,0.309-1.225c0-0.982-0.333-1.473-1.001-1.473
				c-0.344,0-0.681,0.168-1.01,0.506V372.702z"/>
			<path d="M308.71,371.526c0-0.454,0.086-0.858,0.258-1.214s0.403-0.654,0.693-0.896c0.289-0.242,0.624-0.427,1.005-0.556
				c0.38-0.127,0.779-0.191,1.198-0.191c0.432,0,0.821,0.07,1.17,0.208c0.348,0.14,0.639,0.315,0.873,0.527l-0.747,1
				c-0.403-0.284-0.805-0.428-1.208-0.428c-0.469,0-0.849,0.139-1.143,0.417c-0.292,0.278-0.439,0.656-0.439,1.132
				s0.141,0.853,0.422,1.132c0.283,0.277,0.651,0.417,1.105,0.417c0.286,0,0.549-0.051,0.79-0.153
				c0.242-0.103,0.458-0.224,0.649-0.363l0.659,1.022c-0.33,0.277-0.695,0.481-1.094,0.609c-0.399,0.129-0.785,0.191-1.16,0.191
				c-0.432,0-0.831-0.063-1.197-0.191c-0.365-0.128-0.687-0.313-0.961-0.555s-0.488-0.54-0.643-0.896
				C308.788,372.384,308.71,371.98,308.71,371.526z"/>
			<path d="M315.84,368.801h1.319l0.131,1.187h0.033c0.271-0.447,0.598-0.778,0.978-0.994c0.381-0.216,0.792-0.324,1.23-0.324
				c0.242,0,0.438,0.018,0.588,0.055s0.306,0.092,0.468,0.164l-0.33,1.353c-0.169-0.052-0.321-0.091-0.457-0.115
				c-0.136-0.025-0.307-0.039-0.512-0.039c-0.336,0-0.667,0.1-0.994,0.296c-0.326,0.198-0.606,0.543-0.841,1.034v2.834h-1.615
				V368.801z"/>
			<path d="M321.674,371.526c0-0.454,0.076-0.858,0.229-1.214c0.154-0.355,0.361-0.654,0.621-0.896
				c0.261-0.242,0.558-0.427,0.89-0.556c0.333-0.127,0.68-0.191,1.039-0.191c0.358,0,0.704,0.064,1.038,0.191
				c0.333,0.129,0.63,0.313,0.89,0.556c0.26,0.241,0.468,0.54,0.621,0.896c0.155,0.355,0.231,0.76,0.231,1.214
				s-0.076,0.858-0.231,1.214c-0.153,0.355-0.361,0.653-0.621,0.896s-0.557,0.427-0.89,0.555c-0.333,0.129-0.679,0.191-1.038,0.191
				c-0.359,0-0.706-0.063-1.039-0.191c-0.332-0.128-0.629-0.313-0.89-0.555c-0.26-0.242-0.466-0.54-0.621-0.896
				C321.75,372.384,321.674,371.98,321.674,371.526z M323.332,371.526c0,0.476,0.093,0.853,0.28,1.132
				c0.188,0.277,0.468,0.417,0.841,0.417s0.653-0.14,0.841-0.417c0.186-0.279,0.279-0.656,0.279-1.132s-0.093-0.854-0.279-1.132
				c-0.188-0.278-0.468-0.417-0.841-0.417s-0.653,0.139-0.841,0.417S323.332,371.05,323.332,371.526z"/>
			<path d="M329.057,372.536c0.315,0.198,0.631,0.355,0.95,0.474c0.318,0.117,0.662,0.176,1.028,0.176
				c0.374,0,0.641-0.041,0.801-0.121c0.161-0.081,0.242-0.194,0.242-0.341c0-0.168-0.134-0.306-0.401-0.411
				c-0.268-0.106-0.621-0.222-1.061-0.346c-0.24-0.067-0.477-0.146-0.708-0.237c-0.231-0.091-0.438-0.202-0.621-0.329
				c-0.183-0.129-0.331-0.277-0.444-0.445c-0.115-0.169-0.171-0.362-0.171-0.583c0-0.249,0.059-0.479,0.176-0.691
				c0.116-0.212,0.283-0.393,0.499-0.539s0.48-0.261,0.792-0.346c0.312-0.083,0.661-0.126,1.049-0.126
				c0.484,0,0.925,0.078,1.325,0.236c0.399,0.157,0.741,0.327,1.027,0.511l-0.725,0.966c-0.25-0.146-0.506-0.268-0.77-0.367
				c-0.264-0.099-0.539-0.147-0.824-0.147c-0.343,0-0.588,0.035-0.73,0.109c-0.144,0.073-0.215,0.179-0.215,0.318
				c0,0.08,0.037,0.154,0.111,0.22c0.072,0.065,0.171,0.125,0.297,0.175c0.124,0.053,0.272,0.102,0.444,0.149
				c0.172,0.048,0.354,0.097,0.544,0.147c0.271,0.074,0.528,0.156,0.769,0.248c0.242,0.091,0.455,0.199,0.637,0.323
				c0.184,0.125,0.33,0.275,0.44,0.451c0.109,0.176,0.164,0.381,0.164,0.615c0,0.249-0.058,0.48-0.175,0.692
				c-0.118,0.212-0.287,0.397-0.512,0.555c-0.223,0.157-0.501,0.282-0.835,0.373c-0.333,0.092-0.719,0.137-1.158,0.137
				c-0.491,0-0.971-0.08-1.439-0.24c-0.469-0.161-0.879-0.359-1.23-0.594L329.057,372.536z"/>
			<path d="M335.647,372.536c0.316,0.198,0.632,0.355,0.95,0.474c0.319,0.117,0.662,0.176,1.028,0.176
				c0.373,0,0.64-0.041,0.801-0.121c0.161-0.081,0.242-0.194,0.242-0.341c0-0.168-0.134-0.306-0.4-0.411
				c-0.268-0.106-0.621-0.222-1.061-0.346c-0.241-0.067-0.477-0.146-0.708-0.237c-0.231-0.091-0.438-0.202-0.621-0.329
				c-0.184-0.129-0.331-0.277-0.444-0.445c-0.114-0.169-0.171-0.362-0.171-0.583c0-0.249,0.059-0.479,0.176-0.691
				c0.116-0.212,0.283-0.393,0.499-0.539c0.216-0.146,0.48-0.261,0.792-0.346c0.311-0.083,0.66-0.126,1.049-0.126
				c0.484,0,0.925,0.078,1.325,0.236c0.399,0.157,0.741,0.327,1.027,0.511l-0.725,0.966c-0.25-0.146-0.506-0.268-0.77-0.367
				c-0.264-0.099-0.539-0.147-0.824-0.147c-0.343,0-0.588,0.035-0.73,0.109c-0.144,0.073-0.215,0.179-0.215,0.318
				c0,0.08,0.037,0.154,0.111,0.22c0.072,0.065,0.172,0.125,0.296,0.175c0.125,0.053,0.272,0.102,0.444,0.149
				c0.172,0.048,0.354,0.097,0.544,0.147c0.271,0.074,0.528,0.156,0.768,0.248c0.242,0.091,0.454,0.199,0.637,0.323
				c0.183,0.125,0.331,0.275,0.44,0.451s0.164,0.381,0.164,0.615c0,0.249-0.058,0.48-0.175,0.692
				c-0.117,0.212-0.287,0.397-0.511,0.555c-0.223,0.157-0.501,0.282-0.835,0.373c-0.332,0.092-0.719,0.137-1.158,0.137
				c-0.491,0-0.971-0.08-1.44-0.24c-0.469-0.161-0.879-0.359-1.23-0.594L335.647,372.536z"/>
		</g>
		<g clip-path="url(#XMLID_264_)">
			<path d="M280.785,387.433h-1.318l-0.122-0.781h-0.044c-0.242,0.279-0.509,0.501-0.803,0.666
				c-0.292,0.164-0.637,0.246-1.032,0.246c-0.622,0-1.073-0.196-1.351-0.592c-0.279-0.396-0.418-0.938-0.418-1.627v-3.362h1.616
				v3.154c0,0.365,0.055,0.633,0.164,0.802c0.109,0.168,0.318,0.253,0.626,0.253c0.205,0,0.387-0.044,0.544-0.133
				c0.157-0.088,0.331-0.252,0.522-0.494v-3.582h1.615V387.433z"/>
			<path d="M282.882,381.983h1.319l0.131,1.188h0.033c0.271-0.447,0.598-0.778,0.978-0.994c0.381-0.216,0.792-0.324,1.23-0.324
				c0.242,0,0.438,0.018,0.588,0.055s0.306,0.092,0.468,0.164l-0.33,1.353c-0.169-0.053-0.321-0.091-0.457-0.115
				c-0.135-0.026-0.306-0.04-0.511-0.04c-0.336,0-0.667,0.101-0.994,0.297c-0.325,0.198-0.605,0.543-0.841,1.034v2.834h-1.615
				V381.983z"/>
			<path d="M288.88,379.732h3.198v5.635c0,0.17,0.023,0.311,0.071,0.424c0.048,0.114,0.113,0.205,0.198,0.275
				c0.083,0.068,0.179,0.119,0.284,0.147c0.106,0.028,0.215,0.044,0.325,0.044c0.125,0,0.256-0.013,0.396-0.038
				c0.139-0.026,0.292-0.071,0.46-0.137l0.364,1.185c-0.147,0.046-0.283,0.085-0.407,0.122c-0.125,0.037-0.249,0.067-0.374,0.093
				c-0.125,0.026-0.255,0.047-0.395,0.061c-0.14,0.015-0.294,0.021-0.462,0.021c-0.688,0-1.206-0.202-1.555-0.609
				c-0.347-0.406-0.522-0.957-0.522-1.653v-4.296h-1.582V379.732z"/>
			<path d="M297.4,387.191c-0.414-0.834-0.621-1.771-0.621-2.813c0-1.04,0.207-1.977,0.621-2.813
				c0.413-0.835,0.979-1.57,1.697-2.208l0.901,0.714c-0.652,0.638-1.126,1.298-1.423,1.982c-0.297,0.686-0.444,1.46-0.444,2.324
				c0,0.433,0.037,0.841,0.109,1.226c0.074,0.384,0.186,0.753,0.335,1.104c0.15,0.352,0.343,0.69,0.577,1.016
				c0.235,0.325,0.517,0.646,0.846,0.961l-0.901,0.714C298.379,388.762,297.813,388.026,297.4,387.191z"/>
			<path d="M303.799,381.5l-0.055-1.594h1.868l-0.055,1.594l-0.385,2.604h-0.989L303.799,381.5z"/>
			<path d="M308.71,384.708c0-0.454,0.086-0.859,0.258-1.215s0.403-0.653,0.693-0.896c0.289-0.241,0.624-0.426,1.005-0.555
				c0.38-0.127,0.779-0.191,1.198-0.191c0.432,0,0.821,0.069,1.17,0.208c0.348,0.14,0.639,0.315,0.873,0.527l-0.747,1
				c-0.403-0.285-0.805-0.429-1.208-0.429c-0.469,0-0.849,0.14-1.143,0.417c-0.292,0.279-0.439,0.656-0.439,1.133
				c0,0.476,0.141,0.853,0.422,1.132c0.283,0.277,0.651,0.417,1.105,0.417c0.286,0,0.549-0.051,0.79-0.153
				c0.242-0.103,0.458-0.225,0.649-0.363l0.659,1.022c-0.33,0.277-0.695,0.481-1.094,0.609c-0.399,0.129-0.785,0.191-1.16,0.191
				c-0.432,0-0.831-0.063-1.197-0.191c-0.365-0.128-0.687-0.313-0.961-0.555s-0.488-0.54-0.643-0.896
				C308.788,385.567,308.71,385.162,308.71,384.708z"/>
			<path d="M315.083,384.708c0-0.454,0.077-0.859,0.229-1.215c0.155-0.355,0.361-0.653,0.621-0.896
				c0.261-0.241,0.558-0.426,0.89-0.555c0.333-0.127,0.68-0.191,1.039-0.191c0.358,0,0.704,0.064,1.038,0.191
				c0.334,0.129,0.63,0.313,0.89,0.555c0.26,0.242,0.468,0.54,0.621,0.896c0.155,0.355,0.231,0.761,0.231,1.215
				c0,0.453-0.077,0.858-0.231,1.214c-0.153,0.355-0.361,0.653-0.621,0.896s-0.556,0.427-0.89,0.555
				c-0.333,0.129-0.679,0.191-1.038,0.191c-0.359,0-0.706-0.063-1.039-0.191c-0.332-0.128-0.629-0.313-0.89-0.555
				c-0.26-0.242-0.466-0.54-0.621-0.896C315.159,385.567,315.083,385.162,315.083,384.708z M316.741,384.708
				c0,0.476,0.093,0.853,0.28,1.132c0.188,0.277,0.468,0.417,0.841,0.417c0.374,0,0.654-0.14,0.841-0.417
				c0.186-0.279,0.28-0.656,0.28-1.132c0-0.477-0.094-0.854-0.28-1.133c-0.187-0.277-0.467-0.417-0.841-0.417
				c-0.373,0-0.653,0.14-0.841,0.417C316.834,383.855,316.741,384.232,316.741,384.708z"/>
			<path d="M321.838,379.732h3.198v5.635c0,0.17,0.023,0.311,0.071,0.424c0.048,0.114,0.114,0.205,0.198,0.275
				c0.083,0.068,0.179,0.119,0.285,0.147c0.106,0.028,0.214,0.044,0.325,0.044c0.125,0,0.256-0.013,0.395-0.038
				c0.14-0.026,0.293-0.071,0.461-0.137l0.364,1.185c-0.148,0.046-0.283,0.085-0.408,0.122c-0.124,0.037-0.249,0.067-0.373,0.093
				c-0.125,0.026-0.256,0.047-0.395,0.061c-0.14,0.015-0.294,0.021-0.462,0.021c-0.688,0-1.206-0.202-1.554-0.609
				c-0.347-0.406-0.522-0.957-0.522-1.653v-4.296h-1.582V379.732z"/>
			<path d="M328.266,384.708c0-0.454,0.077-0.859,0.23-1.215c0.154-0.355,0.361-0.653,0.621-0.896
				c0.261-0.241,0.558-0.426,0.89-0.555c0.333-0.127,0.679-0.191,1.039-0.191c0.358,0,0.704,0.064,1.038,0.191
				c0.333,0.129,0.63,0.313,0.89,0.555c0.26,0.242,0.467,0.54,0.621,0.896c0.154,0.355,0.231,0.761,0.231,1.215
				c0,0.453-0.077,0.858-0.231,1.214c-0.153,0.355-0.361,0.653-0.621,0.896s-0.557,0.427-0.89,0.555
				c-0.333,0.129-0.68,0.191-1.038,0.191c-0.36,0-0.706-0.063-1.039-0.191c-0.333-0.128-0.629-0.313-0.89-0.555
				c-0.26-0.242-0.466-0.54-0.621-0.896C328.343,385.567,328.266,385.162,328.266,384.708z M329.925,384.708
				c0,0.476,0.093,0.853,0.28,1.132c0.187,0.277,0.467,0.417,0.841,0.417c0.373,0,0.653-0.14,0.841-0.417
				c0.186-0.279,0.279-0.656,0.279-1.132c0-0.477-0.093-0.854-0.279-1.133c-0.188-0.277-0.468-0.417-0.841-0.417
				c-0.374,0-0.654,0.14-0.841,0.417C330.018,383.855,329.925,384.232,329.925,384.708z"/>
			<path d="M335.615,381.983h1.319l0.131,1.188h0.033c0.271-0.447,0.598-0.778,0.978-0.994c0.381-0.216,0.792-0.324,1.23-0.324
				c0.242,0,0.438,0.018,0.588,0.055s0.306,0.092,0.468,0.164l-0.33,1.353c-0.169-0.053-0.321-0.091-0.457-0.115
				c-0.135-0.026-0.306-0.04-0.511-0.04c-0.336,0-0.667,0.101-0.994,0.297c-0.325,0.198-0.605,0.543-0.841,1.034v2.834h-1.615
				V381.983z"/>
			<path d="M341.724,379.732h1.614v1.889l-0.043,0.857c0.212-0.198,0.453-0.352,0.719-0.462c0.268-0.109,0.533-0.164,0.797-0.164
				c0.336,0,0.643,0.065,0.917,0.197s0.504,0.316,0.692,0.555c0.187,0.238,0.331,0.527,0.433,0.868s0.155,0.719,0.155,1.138
				c0,0.469-0.066,0.886-0.198,1.252c-0.131,0.366-0.308,0.676-0.526,0.929c-0.22,0.253-0.472,0.444-0.753,0.577
				c-0.282,0.131-0.577,0.196-0.885,0.196c-0.255,0-0.511-0.062-0.763-0.186c-0.253-0.125-0.494-0.305-0.721-0.539h-0.043
				l-0.131,0.594h-1.263V379.732z M343.338,385.884c0.153,0.131,0.313,0.226,0.478,0.28c0.165,0.055,0.321,0.082,0.467,0.082
				c0.301,0,0.552-0.126,0.757-0.379s0.308-0.662,0.308-1.226c0-0.981-0.332-1.472-0.999-1.472c-0.345,0-0.681,0.168-1.011,0.506
				V385.884z"/>
			<path d="M348.193,385.917c0-0.308,0.066-0.577,0.198-0.808c0.131-0.229,0.342-0.427,0.632-0.587
				c0.29-0.161,0.66-0.291,1.116-0.391c0.454-0.099,1.003-0.167,1.647-0.202c-0.029-0.251-0.138-0.444-0.324-0.583
				c-0.188-0.14-0.468-0.209-0.841-0.209c-0.264,0-0.529,0.045-0.796,0.137c-0.268,0.092-0.555,0.215-0.862,0.369l-0.572-1.056
				c0.374-0.212,0.774-0.388,1.203-0.527c0.428-0.139,0.876-0.208,1.345-0.208c0.762,0,1.363,0.201,1.802,0.604
				c0.44,0.401,0.659,1.021,0.659,1.856v3.12h-1.318l-0.12-0.615h-0.045c-0.277,0.212-0.581,0.39-0.912,0.533
				c-0.33,0.142-0.67,0.213-1.021,0.213c-0.279,0-0.528-0.041-0.747-0.126c-0.22-0.084-0.407-0.2-0.561-0.351
				c-0.154-0.15-0.273-0.324-0.356-0.522C348.235,386.368,348.193,386.152,348.193,385.917z M349.742,385.796
				c0,0.175,0.068,0.305,0.204,0.39s0.32,0.126,0.555,0.126c0.242,0,0.469-0.05,0.681-0.147c0.212-0.099,0.414-0.222,0.604-0.368
				v-0.901c-0.403,0.022-0.736,0.06-1,0.109c-0.264,0.053-0.473,0.115-0.626,0.193c-0.154,0.076-0.262,0.167-0.324,0.27
				C349.773,385.57,349.742,385.679,349.742,385.796z"/>
			<path d="M355.389,381.983h1.318l0.132,1.188h0.033c0.271-0.447,0.597-0.778,0.978-0.994c0.381-0.216,0.792-0.324,1.23-0.324
				c0.242,0,0.438,0.018,0.588,0.055s0.306,0.092,0.467,0.164l-0.33,1.353c-0.169-0.053-0.321-0.091-0.457-0.115
				c-0.135-0.026-0.305-0.04-0.51-0.04c-0.338,0-0.668,0.101-0.996,0.297c-0.325,0.198-0.605,0.543-0.841,1.034v2.834h-1.614
				V381.983z"/>
			<path d="M362.729,386.279c0-0.183,0.03-0.353,0.093-0.51c0.062-0.158,0.148-0.295,0.258-0.413
				c0.109-0.117,0.244-0.208,0.401-0.274c0.157-0.065,0.332-0.099,0.522-0.099c0.19,0,0.364,0.033,0.521,0.099
				c0.159,0.066,0.292,0.157,0.402,0.274c0.109,0.118,0.196,0.255,0.259,0.413c0.062,0.157,0.093,0.327,0.093,0.51
				c0,0.366-0.118,0.673-0.352,0.918c-0.235,0.246-0.542,0.367-0.923,0.367c-0.381,0-0.689-0.121-0.923-0.367
				C362.845,386.952,362.729,386.645,362.729,386.279z"/>
			<path d="M368.605,385.718c0.316,0.198,0.632,0.355,0.95,0.474c0.319,0.117,0.662,0.176,1.028,0.176
				c0.373,0,0.64-0.041,0.801-0.121c0.161-0.081,0.242-0.194,0.242-0.341c0-0.168-0.134-0.307-0.4-0.411
				c-0.268-0.107-0.621-0.222-1.061-0.347c-0.241-0.066-0.477-0.145-0.708-0.236c-0.231-0.092-0.438-0.202-0.621-0.329
				c-0.183-0.129-0.331-0.277-0.444-0.446c-0.113-0.168-0.171-0.362-0.171-0.582c0-0.249,0.059-0.479,0.177-0.691
				c0.116-0.212,0.283-0.393,0.499-0.539c0.216-0.146,0.479-0.261,0.792-0.346c0.31-0.084,0.66-0.126,1.048-0.126
				c0.484,0,0.926,0.078,1.325,0.236c0.399,0.157,0.741,0.327,1.026,0.51l-0.725,0.967c-0.25-0.146-0.506-0.268-0.77-0.367
				c-0.264-0.099-0.539-0.148-0.824-0.148c-0.343,0-0.588,0.036-0.73,0.109c-0.144,0.074-0.214,0.18-0.214,0.319
				c0,0.08,0.037,0.154,0.111,0.22c0.072,0.065,0.172,0.124,0.296,0.175c0.125,0.052,0.272,0.102,0.444,0.149
				s0.354,0.097,0.544,0.147c0.271,0.074,0.527,0.156,0.768,0.247c0.242,0.092,0.454,0.2,0.637,0.324
				c0.183,0.125,0.331,0.275,0.44,0.451c0.109,0.175,0.164,0.38,0.164,0.615c0,0.249-0.058,0.48-0.175,0.692
				s-0.287,0.397-0.511,0.555c-0.223,0.157-0.502,0.281-0.835,0.373c-0.332,0.092-0.719,0.137-1.158,0.137
				c-0.491,0-0.971-0.08-1.44-0.24c-0.469-0.161-0.879-0.359-1.23-0.594L368.605,385.718z"/>
			<path d="M374.229,381.983h1.626l0.857,2.572c0.089,0.277,0.172,0.557,0.253,0.834c0.081,0.278,0.162,0.561,0.242,0.846h0.043
				c0.081-0.285,0.16-0.567,0.236-0.846c0.077-0.277,0.159-0.557,0.248-0.834l0.855-2.572h1.549l-1.998,5.45h-1.857L374.229,381.983
				z"/>
			<path d="M381.054,388.356c0-0.447,0.281-0.81,0.846-1.089v-0.043c-0.146-0.095-0.274-0.217-0.386-0.362
				c-0.109-0.146-0.164-0.337-0.164-0.572c0-0.183,0.061-0.366,0.181-0.548c0.122-0.184,0.277-0.342,0.468-0.473v-0.044
				c-0.198-0.133-0.366-0.317-0.506-0.556c-0.138-0.237-0.208-0.518-0.208-0.841c0-0.329,0.064-0.616,0.191-0.862
				c0.129-0.245,0.3-0.45,0.512-0.615c0.212-0.164,0.459-0.288,0.741-0.373c0.282-0.084,0.576-0.126,0.884-0.126
				c0.338,0,0.638,0.044,0.901,0.131h2.208v1.176h-1.108c0.065,0.081,0.124,0.185,0.175,0.313c0.052,0.129,0.078,0.266,0.078,0.411
				c0,0.316-0.06,0.587-0.177,0.813c-0.117,0.228-0.276,0.416-0.478,0.566c-0.202,0.15-0.439,0.261-0.715,0.335
				c-0.274,0.074-0.568,0.109-0.885,0.109c-0.233,0-0.482-0.035-0.746-0.109c-0.081,0.059-0.141,0.117-0.182,0.177
				c-0.04,0.057-0.061,0.131-0.061,0.219c0,0.146,0.074,0.253,0.221,0.318c0.146,0.066,0.38,0.1,0.702,0.1h1.011
				c0.718,0,1.266,0.105,1.644,0.318c0.377,0.212,0.565,0.563,0.565,1.055c0,0.285-0.078,0.549-0.23,0.791
				c-0.155,0.242-0.371,0.448-0.648,0.621c-0.279,0.172-0.619,0.308-1.022,0.406c-0.402,0.098-0.85,0.148-1.34,0.148
				c-0.352,0-0.68-0.028-0.983-0.083c-0.305-0.055-0.565-0.14-0.786-0.252c-0.22-0.114-0.391-0.258-0.517-0.435
				C381.115,388.805,381.054,388.598,381.054,388.356z M382.371,388.114c0,0.205,0.123,0.361,0.368,0.468
				c0.246,0.105,0.585,0.158,1.017,0.158c0.439,0,0.795-0.064,1.065-0.191c0.271-0.128,0.407-0.288,0.407-0.479
				c0-0.176-0.08-0.291-0.242-0.346c-0.161-0.055-0.398-0.082-0.715-0.082h-0.681c-0.197,0-0.361-0.006-0.488-0.017
				c-0.128-0.011-0.244-0.027-0.347-0.051c-0.139,0.089-0.238,0.176-0.297,0.259C382.401,387.918,382.371,388.011,382.371,388.114z
				 M383.612,384.73c0.228,0,0.424-0.075,0.588-0.226c0.166-0.149,0.248-0.375,0.248-0.676c0-0.292-0.082-0.514-0.248-0.664
				c-0.164-0.15-0.36-0.226-0.588-0.226c-0.227,0-0.418,0.075-0.576,0.226c-0.157,0.15-0.235,0.372-0.235,0.664
				c0,0.301,0.078,0.526,0.235,0.676C383.194,384.655,383.386,384.73,383.612,384.73z"/>
			<path d="M389.49,381.5l-0.055-1.594h1.867l-0.055,1.594l-0.385,2.604h-0.989L389.49,381.5z"/>
			<path d="M395.049,388.685c0.33-0.314,0.611-0.636,0.846-0.961s0.426-0.664,0.576-1.016s0.263-0.721,0.335-1.104
				c0.074-0.385,0.111-0.793,0.111-1.226c0-0.864-0.149-1.639-0.446-2.324c-0.296-0.685-0.771-1.345-1.422-1.982l0.901-0.714
				c0.717,0.638,1.282,1.373,1.696,2.208c0.415,0.836,0.621,1.772,0.621,2.813c0,1.041-0.206,1.979-0.621,2.813
				c-0.414,0.835-0.979,1.571-1.696,2.208L395.049,388.685z"/>
			<path d="M402.256,388.873c0.951-0.329,1.427-0.851,1.427-1.56c-0.028,0.007-0.069,0.011-0.12,0.011
				c-0.154,0-0.302-0.024-0.445-0.072c-0.143-0.047-0.269-0.119-0.379-0.214c-0.109-0.096-0.198-0.213-0.264-0.352
				s-0.099-0.301-0.099-0.483c0-0.345,0.119-0.619,0.356-0.824c0.238-0.205,0.529-0.308,0.874-0.308c0.454,0,0.794,0.166,1.021,0.5
				c0.227,0.334,0.34,0.797,0.34,1.389c0,0.704-0.193,1.298-0.582,1.78c-0.387,0.484-0.963,0.843-1.724,1.077L402.256,388.873z
				 M402.277,382.73c0-0.184,0.03-0.353,0.093-0.51c0.062-0.159,0.148-0.296,0.259-0.413c0.109-0.118,0.243-0.208,0.4-0.275
				c0.157-0.065,0.331-0.098,0.522-0.098c0.19,0,0.363,0.032,0.522,0.098c0.157,0.067,0.29,0.157,0.4,0.275
				c0.109,0.117,0.195,0.254,0.259,0.413c0.062,0.157,0.093,0.326,0.093,0.51c0,0.366-0.118,0.673-0.352,0.917
				c-0.235,0.246-0.543,0.368-0.923,0.368c-0.382,0-0.689-0.122-0.923-0.368C402.394,383.403,402.277,383.096,402.277,382.73z"/>
		</g>
		<g clip-path="url(#XMLID_264_)">
			<path d="M262.625,392.917h1.614v1.89l-0.043,0.857c0.212-0.198,0.453-0.352,0.719-0.462c0.268-0.109,0.533-0.164,0.797-0.164
				c0.336,0,0.643,0.065,0.917,0.196c0.275,0.133,0.504,0.317,0.692,0.556c0.187,0.237,0.331,0.527,0.433,0.868
				c0.103,0.34,0.155,0.719,0.155,1.137c0,0.47-0.066,0.887-0.198,1.253c-0.131,0.366-0.308,0.675-0.528,0.928
				c-0.219,0.253-0.47,0.444-0.752,0.577c-0.282,0.132-0.577,0.197-0.885,0.197c-0.255,0-0.51-0.062-0.763-0.187
				c-0.253-0.124-0.494-0.305-0.721-0.538h-0.043l-0.131,0.593h-1.263V392.917z M264.239,399.069
				c0.153,0.132,0.313,0.226,0.478,0.28c0.165,0.055,0.321,0.082,0.467,0.082c0.301,0,0.552-0.126,0.757-0.379
				s0.309-0.661,0.309-1.225c0-0.981-0.333-1.473-1-1.473c-0.345,0-0.681,0.168-1.011,0.506V399.069z"/>
			<path d="M269.105,392.917h3.198v5.636c0,0.17,0.023,0.311,0.071,0.424s0.114,0.205,0.198,0.274
				c0.083,0.068,0.179,0.119,0.285,0.148c0.106,0.028,0.214,0.043,0.325,0.043c0.125,0,0.256-0.012,0.395-0.038
				c0.14-0.025,0.293-0.071,0.461-0.137l0.364,1.186c-0.148,0.045-0.283,0.085-0.408,0.122c-0.124,0.036-0.249,0.066-0.373,0.093
				c-0.125,0.025-0.256,0.046-0.395,0.06c-0.14,0.016-0.294,0.022-0.462,0.022c-0.688,0-1.206-0.202-1.554-0.61
				c-0.347-0.405-0.522-0.957-0.522-1.652v-4.296h-1.582V392.917z"/>
			<path d="M275.621,397.893c0-0.447,0.08-0.846,0.237-1.197s0.368-0.649,0.631-0.896c0.264-0.245,0.566-0.434,0.907-0.566
				c0.34-0.131,0.693-0.196,1.06-0.196c0.418,0,0.788,0.065,1.11,0.196c0.323,0.133,0.589,0.316,0.803,0.55
				c0.212,0.235,0.373,0.512,0.482,0.83s0.166,0.664,0.166,1.037c0,0.146-0.008,0.28-0.022,0.402c-0.015,0.12-0.03,0.213-0.045,0.28
				h-3.669c0.081,0.417,0.264,0.719,0.549,0.905c0.286,0.188,0.63,0.28,1.034,0.28c0.249,0,0.485-0.03,0.708-0.093
				c0.223-0.062,0.455-0.156,0.697-0.28l0.527,0.966c-0.308,0.198-0.652,0.354-1.032,0.468c-0.381,0.113-0.754,0.17-1.121,0.17
				c-0.425,0-0.82-0.063-1.187-0.191c-0.366-0.129-0.685-0.316-0.956-0.561c-0.271-0.245-0.485-0.544-0.643-0.896
				S275.621,398.347,275.621,397.893z M279.555,397.333c0-0.314-0.085-0.571-0.253-0.769c-0.168-0.198-0.439-0.296-0.813-0.296
				c-0.292,0-0.554,0.086-0.785,0.258c-0.231,0.173-0.379,0.44-0.446,0.807H279.555z"/>
			<path d="M282.212,397.893c0-0.447,0.08-0.846,0.237-1.197s0.368-0.649,0.631-0.896c0.264-0.245,0.566-0.434,0.907-0.566
				c0.34-0.131,0.693-0.196,1.06-0.196c0.418,0,0.787,0.065,1.11,0.196c0.323,0.133,0.589,0.316,0.801,0.55
				c0.213,0.235,0.375,0.512,0.484,0.83s0.166,0.664,0.166,1.037c0,0.146-0.008,0.28-0.022,0.402c-0.015,0.12-0.03,0.213-0.045,0.28
				h-3.669c0.081,0.417,0.264,0.719,0.549,0.905c0.286,0.188,0.63,0.28,1.034,0.28c0.249,0,0.484-0.03,0.708-0.093
				c0.223-0.062,0.456-0.156,0.697-0.28l0.528,0.966c-0.308,0.198-0.652,0.354-1.032,0.468c-0.381,0.113-0.754,0.17-1.121,0.17
				c-0.425,0-0.82-0.063-1.187-0.191c-0.367-0.129-0.685-0.316-0.956-0.561c-0.271-0.245-0.485-0.544-0.643-0.896
				S282.212,398.347,282.212,397.893z M286.146,397.333c0-0.314-0.085-0.571-0.253-0.769c-0.168-0.198-0.439-0.296-0.813-0.296
				c-0.292,0-0.554,0.086-0.785,0.258c-0.231,0.173-0.379,0.44-0.446,0.807H286.146z"/>
			<path d="M288.716,397.893c0-0.447,0.065-0.846,0.197-1.197c0.133-0.352,0.306-0.649,0.522-0.896
				c0.216-0.245,0.463-0.434,0.741-0.566c0.279-0.131,0.569-0.196,0.868-0.196c0.316,0,0.579,0.053,0.792,0.158
				c0.212,0.106,0.415,0.247,0.604,0.424l-0.055-0.847v-1.856H294v7.701h-1.318l-0.122-0.561h-0.033
				c-0.205,0.198-0.439,0.362-0.703,0.495c-0.264,0.132-0.535,0.197-0.813,0.197c-0.345,0-0.658-0.065-0.939-0.197
				c-0.281-0.133-0.523-0.321-0.725-0.565c-0.202-0.245-0.356-0.545-0.467-0.896C288.771,398.74,288.716,398.34,288.716,397.893z
				 M290.375,397.872c0,0.541,0.092,0.938,0.275,1.187s0.443,0.373,0.781,0.373c0.182,0,0.351-0.038,0.504-0.114
				c0.154-0.078,0.305-0.208,0.451-0.392v-2.208c-0.146-0.131-0.295-0.224-0.446-0.28c-0.15-0.055-0.305-0.082-0.466-0.082
				c-0.301,0-0.559,0.125-0.775,0.373C290.482,396.977,290.375,397.359,290.375,397.872z"/>
			<path d="M296.813,395.915c0-0.183,0.03-0.353,0.093-0.51c0.062-0.158,0.147-0.295,0.258-0.413c0.109-0.117,0.243-0.207,0.4-0.274
				c0.157-0.065,0.331-0.099,0.522-0.099c0.19,0,0.364,0.033,0.522,0.099c0.157,0.067,0.29,0.157,0.4,0.274
				c0.109,0.118,0.195,0.255,0.258,0.413c0.062,0.157,0.093,0.327,0.093,0.51c0,0.367-0.118,0.673-0.352,0.918
				c-0.235,0.246-0.543,0.367-0.923,0.367c-0.381,0-0.689-0.121-0.923-0.367C296.929,396.587,296.813,396.282,296.813,395.915z
				 M296.813,399.464c0-0.184,0.03-0.353,0.093-0.51c0.062-0.159,0.147-0.296,0.258-0.413c0.109-0.118,0.243-0.208,0.4-0.275
				c0.157-0.065,0.331-0.098,0.522-0.098c0.19,0,0.364,0.032,0.522,0.098c0.157,0.067,0.29,0.157,0.4,0.275
				c0.109,0.117,0.195,0.254,0.258,0.413c0.062,0.157,0.093,0.326,0.093,0.51c0,0.366-0.118,0.673-0.352,0.917
				c-0.235,0.246-0.543,0.368-0.923,0.368c-0.381,0-0.689-0.122-0.923-0.368C296.929,400.137,296.813,399.831,296.813,399.464z"/>
			<path d="M314.105,398.949h-0.879v1.669h-1.505v-1.669h-3.362v-1.11l2.912-4.197h1.955v4.077h0.879V398.949z M311.721,397.718
				v-1.176c0-0.22,0.005-0.475,0.016-0.765c0.011-0.288,0.025-0.544,0.039-0.763h-0.044c-0.116,0.197-0.241,0.396-0.373,0.594
				c-0.131,0.196-0.26,0.395-0.384,0.592l-1.056,1.518H311.721z"/>
			<path d="M314.961,395.168h1.208l0.122,0.681h0.044c0.103-0.227,0.243-0.418,0.422-0.575c0.179-0.159,0.426-0.236,0.742-0.236
				c0.241,0,0.444,0.075,0.61,0.224c0.164,0.15,0.28,0.372,0.346,0.666c0.103-0.249,0.25-0.461,0.444-0.632
				c0.194-0.172,0.446-0.258,0.753-0.258c0.38,0,0.677,0.155,0.89,0.466c0.212,0.312,0.318,0.742,0.318,1.291v3.823h-1.516v-3.702
				c0-0.338-0.103-0.506-0.308-0.506c-0.198,0-0.366,0.177-0.506,0.528v3.68h-1.241v-3.702c0-0.338-0.107-0.506-0.319-0.506
				c-0.103,0-0.19,0.044-0.264,0.133c-0.074,0.088-0.15,0.219-0.231,0.396v3.68h-1.516V395.168z"/>
			<path d="M321.552,395.168h1.209l0.122,0.681h0.043c0.103-0.227,0.244-0.418,0.423-0.575c0.179-0.159,0.426-0.236,0.742-0.236
				c0.241,0,0.444,0.075,0.61,0.224c0.164,0.15,0.279,0.372,0.346,0.666c0.103-0.249,0.25-0.461,0.444-0.632
				c0.194-0.172,0.446-0.258,0.753-0.258c0.38,0,0.677,0.155,0.89,0.466c0.212,0.312,0.318,0.742,0.318,1.291v3.823h-1.516v-3.702
				c0-0.338-0.103-0.506-0.308-0.506c-0.198,0-0.366,0.177-0.506,0.528v3.68h-1.241v-3.702c0-0.338-0.107-0.506-0.319-0.506
				c-0.103,0-0.19,0.044-0.264,0.133c-0.074,0.088-0.15,0.219-0.231,0.396v3.68h-1.517V395.168z"/>
			<path d="M329.75,402.058c0.952-0.33,1.427-0.851,1.427-1.561c-0.028,0.007-0.069,0.011-0.12,0.011
				c-0.154,0-0.302-0.024-0.446-0.072c-0.142-0.046-0.269-0.119-0.378-0.213c-0.109-0.096-0.197-0.214-0.264-0.352
				c-0.065-0.14-0.098-0.301-0.098-0.484c0-0.344,0.119-0.619,0.356-0.824c0.238-0.205,0.529-0.308,0.874-0.308
				c0.454,0,0.794,0.167,1.021,0.501c0.227,0.333,0.34,0.797,0.34,1.389c0,0.704-0.194,1.298-0.581,1.78
				c-0.388,0.483-0.964,0.842-1.725,1.077L329.75,402.058z M329.771,395.915c0-0.183,0.03-0.353,0.093-0.51
				c0.062-0.158,0.148-0.295,0.259-0.413c0.109-0.117,0.243-0.207,0.4-0.274c0.157-0.065,0.332-0.099,0.522-0.099
				c0.19,0,0.363,0.033,0.521,0.099c0.159,0.067,0.292,0.157,0.402,0.274c0.109,0.118,0.195,0.255,0.258,0.413
				c0.062,0.157,0.093,0.327,0.093,0.51c0,0.367-0.118,0.673-0.351,0.918c-0.235,0.246-0.543,0.367-0.923,0.367
				c-0.382,0-0.689-0.121-0.923-0.367C329.888,396.587,329.771,396.282,329.771,395.915z"/>
		</g>
	</g>
</g>
</svg>
